<?xml version="1.0" encoding="UTF-8" standalone="no"?>
<svg width="35px" height="29px" viewBox="0 0 35 29" version="1.1" xmlns="http://www.w3.org/2000/svg" xmlns:xlink="http://www.w3.org/1999/xlink" xmlns:sketch="http://www.bohemiancoding.com/sketch/ns">
    <title>icon_facebook</title>
    <description>Created with Sketch (http://www.bohemiancoding.com/sketch)</description>
    <defs></defs>
    <g id="Page-2" stroke="none" stroke-width="1" fill="none" fill-rule="evenodd" sketch:type="MSPage">
        <g id="Twitter" sketch:type="MSLayerGroup">
            <path d="M33.8777204,3.76576728 C33.7303162,4.0129303 32.9687446,4.87798336 32.1580429,5.66889241 C30.7822967,7.02826451 30.7085946,7.17655952 30.7085946,8.31349261 C30.7085946,10.0683227 29.8733208,13.726278 29.0380471,15.7282641 C27.4903317,19.4850804 24.1738017,23.3654761 20.8572787,25.3180317 C16.1895675,28.0614967 9.97414792,28.7535417 4.74140696,27.1470087 C2.99715879,26.6032584 0,25.2191686 0,24.9720091 C0,24.8978616 0.908974417,24.7989978 2.01448371,24.7742822 C4.32377008,24.7248503 6.63305646,24.0822369 8.59840875,22.9453053 L9.92501792,22.1543969 L8.40187458,21.635363 C6.239986,20.8938865 4.29920296,19.1884904 3.80786542,17.5819553 C3.66046408,17.0629192 3.70959833,17.0382092 5.08534317,17.0382092 L6.51022225,17.0134922 L5.30644517,16.4450222 C3.88156608,15.7282641 2.57952192,14.5171871 1.94078304,13.281386 C1.47401262,12.3916159 0.884407292,10.1424667 1.05637575,9.96946172 C1.10550929,9.89531072 1.62141396,10.0436057 2.21101858,10.2413347 C3.90613321,10.8592318 4.12723521,10.7109368 3.14456012,9.6728647 C1.30204417,7.79445657 0.737005958,5.00156137 1.62141396,2.35696118 L2.03905083,1.17060109 L3.66046408,2.77712921 C6.97699267,6.01491644 10.8831237,7.94275158 15.3542937,8.51122162 L16.5826429,8.65951663 L16.5089408,7.44843954 C16.2878417,4.30952032 18.2286183,1.44247411 21.2994842,0.330258031 C22.4295592,-0.0651929979 24.3457708,-0.114627001 25.598685,0.231397023 C26.0900204,0.379692034 27.0235612,0.87401107 27.6868658,1.3188961 L28.8906429,2.13452216 L30.2172592,1.71434713 C30.9542658,1.49190811 31.9369367,1.12116709 32.3791421,0.87401107 C32.7967754,0.651565054 33.1652787,0.527987045 33.1652787,0.60213105 C33.1652787,1.02230608 32.25631,2.45582218 31.4947312,3.24673124 C30.4629233,4.35894732 30.7577246,4.45781533 32.8459125,3.71633327 C33.7255493,3.4213431 33.9997255,3.33345865 34,3.46978713 C33.9998839,3.52810188 33.9507387,3.62619239 33.8777204,3.76576728 Z" id="Clip-2-copy-2" stroke="#000000" sketch:type="MSShapeGroup"></path>
            <ellipse id="Path" fill="#000000" sketch:type="MSShapeGroup" cx="24.2857143" cy="4.86956522" rx="1.21428571" ry="1.2173913"></ellipse>
        </g>
    </g>
</svg>