<svg xmlns="http://www.w3.org/2000/svg" height="800"><g fill="none"><path d="M77.696 284.285s.101 1.894-.723 1.875c-.824-.019-17.278-48.094-37.806-45.851 0 0 17.783-7.353 38.529 43.976zM81.226 281.262s-.549 1.816-1.318 1.517c-.768-.298.115-51.104-19.951-55.978 0 0 19.223-.864 21.269 54.461zM108.716 323.59s1.636.96 1.166 1.637c-.471.677-49.645-12.125-59.1 6.232 0 0 3.679-18.887 57.934-7.869zM105.907 333.801s1.856.396 1.622 1.187c-.233.791-50.936 4.133-54.126 24.534 0 0-2.458-19.085 52.504-25.721zM101.696 328.276s1.778.663 1.432 1.411c-.346.748-50.994-3.341-57.126 16.377 0 0 .352-19.239 55.694-17.788zM90.991 310.072s1.308 1.374.669 1.895c-.639.521-44.382-25.333-58.529-10.291 0 0 8.741-17.143 57.86 8.396zM83.446 314.263s1.456 1.217.88 1.808c-.576.59-46.964-20.149-59.318-3.602 0 0 6.745-18.022 58.438 1.794zM80.846 318.335s1.608 1.008 1.118 1.671-49.272-13.56-59.255 4.516c0 0 4.225-18.773 58.137-6.187zM91.58 318.949s1.122 1.531.421 1.966c-.701.435-40.77-30.813-56.728-17.708 0 0 10.865-15.881 56.307 15.742zM71.8 290s.6 1.8-.2 2c-.8.2-29.4-41.8-48.601-34.2 0 0 15.201-11.8 48.801 32.2zM72.495 296.979s.975 1.629.236 1.996c-.738.368-37.723-34.476-54.832-22.914 0 0 12.297-14.8 54.596 20.918zM72.38 301.349s1.122 1.531.421 1.966c-.701.434-40.77-30.813-56.728-17.708 0 0 10.865-15.881 56.307 15.742z" fill="#fff" stroke="#000" stroke-width=".172"/><path d="M70.17 303.065c.503 6.048 1.491 12.617 3.23 15.736 0 0-3.6 12.4 5.2 25.6 0 0-.4 7.2 1.2 10.4 0 0 4 8.4 8.8 9.2 3.884.647 12.607 3.716 22.468 5.12 0 0 17.132 14.08 13.932 26.88 0 0-.4 16.4-4 18 0 0 11.6-11.2 2 5.6l-4.4 18.8s25.6-21.6 10-3.2l-10 26s19.6-18.4 12.4-10l-3.2 8.8s43.2-27.2 12.4 2.4c0 0 8-3.6 12.4-.8 0 0 6.8-1.2 6 .4 0 0-20.8 10.4-24.4 28.8 0 0 8.4-10 5.2.8l.4 11.6s4-21.6 3.6 16c0 0 19.2-18 7.6 2.8v16.8s15.2-16.4 8.8-3.6c0 0 10-8.8 6 6.4 0 0-.8 10.4 3.6-.8 0 0 16-30.6 10-4.4 0 0-.8 19.2 4 4.4 0 0 .4 10.4 9.6 17.6 0 0-1.2-50.8 11.6-14.8l4 16.4s2.8-9.2 2.4-14.4c0 0 14.8-16.4 8 8 0 0 15.2-22.8 12-9.6 0 0-7.6 16-6 20.8 0 0 16.8-34.8 18-36.4 0 0-2 42.401 8.8 6.4 0 0 5.6 12 2.8 16.4 0 0 8-8 7.2-11.2 0 0 4.6-8.2 7.4 5.4 0 0 1.8 9.4 3.4 6.2 0 0 4 24.001 5.2 1.2 0 0 1.6-13.6-5.6-25.2 0 0 .8-3.2-2-7.2 0 0 13.6 21.6 6.4-7.2 0 0 11.201 8 12.401 8 0 0-13.601-23.2-4.801-18.4 0 0-5.2-10.4 12.801 1.6 0 0-16.001-16 1.6-6.4 0 0 8 6.4.4-3.6 0 0-14.401-16 7.6 2 0 0 11.6 16.4 12.4 19.2 0 0-10-29.2-14.4-32 0 0 8.4-36.4 49.6-20.8 0 0 6.8 17.2 11.2-1.2 0 0 12.8-6.4 24 21.2 0 0 4-13.6 3.2-16.4 0 0 6.8 1.2 6 0 0 0 13.2 4.4 14.4 3.6 0 0 6.8 6.8 7.2 3.2 0 0 9.2 2.8 7.2-.8 0 0 8.8 15.6 9.2 19.2l2.4-14 2 2.8s1.6-7.6.8-8.8c-.8-1.2 20 6.8 24.8 27.6l2 8.4s6-14.8 4.4-18.8c0 0 5.2.8 5.6 5.2 0 0 4-23.2-.8-29.2 0 0 4.4-.8 5.6 2.8v-7.2s7.2.8 7.2-1.6c0 0 4.4-4 6.4.8 0 0-12.4-35.2 6-16 0 0 7.2 10.8 3.6-8s-7.6-20.4-2.8-20.8c0 0 .8-3.6-1.2-5.2s1.2 0 1.2 0 4.8 4-.4-18c0 0 6.4 1.6-5.6-27.6 0 0 2.8-2.4-1.2-10.8 0 0 8 4.4 10.8 2.8 0 0-.4-1.6-3.6-5.6 0 0-21.6-54.801-1.2-32.8 0 0 11.85 13.55 5.45-9.25 0 0-9.111-24.01-8.334-28.306l-429.547 23.02z" fill="#fff" stroke="#000"/><path d="M499.717 280.245c.628.181 2.834 1.305 4.084 2.955 0 0 6.8 10.8 1.6-7.6 0 0-9.2-28.8-.4-17.6 0 0 6 7.2 2.8-6.4-3.865-16.427-6.4-22.8-6.4-22.8s11.6 4.8-15.2-34.8l8.8 3.6s-19.6-39.6-41.2-44.8l-8-6s38.4-38 25.6-74.8c0 0-6.8-5.2-16.4 4 0 0-6.4 4.8-12.4 3.2 0 0-30.8 1.2-32.8 1.2-2 0-36.8-37.2-102.4-19.6 0 0-5.2 2-9.6.8 0 0-18.401-16-67.201 6.8 0 0-10 2-11.6 2-1.6 0-4.4 0-12.4 6.4s-8.4 7.2-10.4 8.8c0 0-16.4 11.2-21.2 12 0 0-11.6 6.4-16 16.4l-3.6 1.2s-1.6 7.2-2 8.4c0 0-4.8 3.6-5.6 9.2 0 0-8.8 6-8.4 10.4 0 0-1.6 5.2-2.4 10 0 0-7.2 4.8-6.4 7.6 0 0-7.6 14-6.4 20.8 0 0-6.4-.4-9.2 2 0 0-.8 4.8-2.4 5.2 0 0-2.8 1.2-.4 5.2 0 0-1.6 2.8-2 4.4 0 0 .8 2.8-3.6 8.4 0 0-6.4 18.8-4.4 24 0 0 .4 4.8-2.4 6.4 0 0-3.6-.4 4.8 11.6 0 0 .8 1.2-2.4 3.6 0 0-17.2 3.6-19.6 20 0 0-13.6 14.8-13.6 20 0 2.305.271 5.452.97 10.065 0 0-.57 8.336 27.03 9.136 27.6.8 402.717-31.356 402.717-31.356z" fill="#cc7226" stroke="#000"/><path d="M84.4 302.6c-25-39.4-10.6 17.001-10.6 17.001 8.8 34.4 138.4-3.2 138.4-3.2s168.801-30.401 180.001-34.401c11.2-4 106.4 2.4 106.4 2.4l-5.6-16.8c-64.8-46.4-84-23.2-97.6-27.2-13.6-4-11.2 5.6-14.4 6.4-3.2.8-42.4-24-48.8-23.2-6.4.8-31.742-22.951-16.8 8.8 16 34-58.401 39.2-75.201 28-16.8-11.2 7.2 18.4 7.2 18.4 18.4 20-16 3.2-16 3.2-34.4-12.8-58.4 12.8-61.6 13.6-3.2.8-8 4-8.8-2.4-.8-6.4-8.31-23.101-40 3.2-20 16.601-33.8-5.4-33.8-5.4l-2.8 11.6z" fill="#cc7226"/><path d="M333.51 225.346c-6.4.8-31.767-22.939-16.8 8.8 16.6 35.2-58.4 39.2-75.2 28-16.801-11.2 7.2 18.4 7.2 18.4 18.4 20-16.001 3.2-16.001 3.2-34.4-12.8-58.4 12.8-61.6 13.6-3.2.8-8 4-8.8-2.4-.8-6.4-8.179-22.934-40 3.2-21.236 17.346-34.727-4.109-34.727-4.109l-3.2 10.109c-25-39.8-9.928 18.509-9.928 18.509 8.801 34.401 139.055-4.509 139.055-4.509s168.801-30.4 180.001-34.4c11.2-4 105.528 2.327 105.528 2.327l-5.528-17.309c-64.8-46.4-83.2-22.618-96.8-26.618-13.6-4-11.2 5.6-14.4 6.4-3.2.8-42.4-24-48.8-23.2z" fill="#e87f3a"/><path d="M334.819 227.091c-6.4.8-31.134-23.229-16.8 8.8 16.2 36.201-58.4 39.201-75.2 28.001-16.8-11.2 7.2 18.4 7.2 18.4 18.4 20-16 3.2-16 3.2-34.4-12.8-58.401 12.8-61.601 13.6-3.2.8-8 4-8.8-2.4-.8-6.4-8.048-22.767-40 3.2-22.473 18.091-35.654-2.818-35.654-2.818l-3.6 8.618c-23.8-39-9.255 20.018-9.255 20.018 8.8 34.4 139.71-5.818 139.71-5.818s168.8-30.4 180-34.4c11.2-4 104.655 2.254 104.655 2.254l-5.454-17.818c-64.801-46.4-82.401-22.037-96.001-26.037-13.6-4-11.2 5.6-14.4 6.401-3.2.8-42.4-24.001-48.8-23.201z" fill="#ea8c4d"/><path d="M336.128 228.837c-6.4.8-31.129-23.232-16.8 8.8 16.8 37.556-58.934 38.845-75.2 28-16.8-11.2 7.2 18.4 7.2 18.4 18.4 20-16 3.2-16 3.2-34.4-12.8-58.4 12.8-61.6 13.6-3.2.8-8 4-8.8-2.4-.8-6.4-7.917-22.598-40.001 3.2-23.709 18.837-36.582-1.527-36.582-1.527l-4 7.127c-21.8-36.8-8.581 21.528-8.581 21.528 8.8 34.4 140.364-7.128 140.364-7.128s168.8-30.4 180.001-34.4c11.2-4 103.782 2.182 103.782 2.182l-5.382-18.327c-64.8-46.401-81.6-21.455-95.2-25.455-13.601-4-11.201 5.6-14.401 6.4-3.2.8-42.4-24-48.8-23.2z" fill="#ec9961"/><path d="M337.438 230.583c-6.401.8-30.624-23.454-16.801 8.8 16.801 39.2-58.4 39.2-75.2 28-16.8-11.2 7.2 18.4 7.2 18.4 18.4 20-16 3.2-16 3.2-34.4-12.8-58.4 12.8-61.6 13.6-3.2.8-8 4-8.8-2.4-.8-6.4-7.785-22.431-40 3.2-24.946 19.582-37.51-.237-37.51-.237l-4.4 5.637c-19.8-34.801-7.909 23.036-7.909 23.036 8.8 34.401 141.019-8.436 141.019-8.436s168.801-30.4 180.001-34.4c11.2-4 102.909 2.109 102.909 2.109l-5.309-18.837c-64.8-46.4-80.8-20.872-94.4-24.872-13.6-4-11.2 5.6-14.4 6.4-3.2.8-42.4-24-48.8-23.2z" fill="#eea575"/><path d="M338.747 232.328c-6.4.8-32.364-22.651-16.8 8.8 19.2 38.8-58.401 39.2-75.201 28-16.8-11.2 7.2 18.4 7.2 18.4 18.4 20-16 3.2-16 3.2-34.4-12.8-58.4 12.8-61.6 13.6-3.2.8-8 4-8.8-2.4-.8-6.4-7.654-22.263-40 3.2-26.182 20.328-38.437 1.055-38.437 1.055l-4.8 4.145c-18-33.2-7.236 24.546-7.236 24.546 8.8 34.4 141.673-9.746 141.673-9.746s168.801-30.4 180.001-34.4c11.2-4 102.036 2.036 102.036 2.036l-5.236-19.345c-64.8-46.4-80-20.291-93.6-24.291-13.6-4-11.2 5.6-14.4 6.4-3.2.8-42.4-24-48.8-23.2z" fill="#f1b288"/><path d="M340.056 234.073c-6.401.8-32.743-22.46-16.801 8.8 20.401 40.001-58.4 39.201-75.2 28.001-16.8-11.2 7.2 18.4 7.2 18.4 18.4 20-16 3.2-16 3.2-34.4-12.8-58.4 12.8-61.6 13.6-3.2.8-8 4-8.8-2.4-.8-6.4-7.523-22.096-40 3.2-27.419 21.073-39.364 2.345-39.364 2.345l-5.2 2.655c-16-30.2-6.564 26.055-6.564 26.055 8.8 34.4 142.328-11.055 142.328-11.055s168.801-30.4 180.001-34.4c11.2-4 101.164 1.963 101.164 1.963l-5.164-19.854c-64.8-46.4-79.2-19.709-92.8-23.709-13.6-4.001-11.2 5.6-14.4 6.4-3.2.8-42.4-24.001-48.8-23.201z" fill="#f3bf9c"/><path d="M341.365 235.819c-6.4.8-33.842-21.875-16.8 8.8 22 39.6-58.401 39.2-75.201 28-16.8-11.2 7.2 18.4 7.2 18.4 18.4 20-16 3.2-16 3.2-34.4-12.8-58.4 12.8-61.6 13.6-3.2.8-8 4-8.8-2.4-.8-6.4-7.391-21.927-40 3.2-28.655 21.819-40.291 3.637-40.291 3.637l-5.6 1.163c-14.401-28.4-5.891 27.564-5.891 27.564 8.8 34.401 142.982-12.364 142.982-12.364s168.801-30.4 180.001-34.4c11.2-4 100.291 1.891 100.291 1.891l-5.091-20.364c-64.8-46.4-78.4-19.127-92-23.127-13.6-4-11.2 5.6-14.4 6.4-3.2.8-42.4-24-48.8-23.2z" fill="#f5ccb0"/><path d="M342.674 237.565c-6.4.8-33.842-21.876-16.8 8.8 22 39.6-58.4 39.2-75.2 28-16.8-11.2 7.2 18.4 7.2 18.4 18.4 20-16 3.2-16 3.2-34.401-12.8-58.401 12.8-61.601 13.6-3.2.8-8 4-8.8-2.4-.8-6.4-7.259-21.76-40 3.2-29.891 22.564-41.218 4.928-41.218 4.928l-6-.328c-13.601-26.401-5.218 29.073-5.218 29.073 8.8 34.4 143.636-13.673 143.636-13.673s168.801-30.4 180.001-34.4c11.2-4 99.419 1.818 99.419 1.818l-5.018-20.873c-64.801-46.4-77.601-18.545-91.201-22.545-13.6-4-11.2 5.6-14.4 6.4-3.2.8-42.4-24-48.8-23.2z" fill="#f8d8c4"/><path d="M343.983 239.31c-6.4.8-33.454-22.087-16.8 8.8 22 40.8-58.4 39.2-75.2 28-16.8-11.2 7.2 18.4 7.2 18.4 18.4 20-16 3.2-16 3.2-34.4-12.8-58.4 12.8-61.6 13.6-3.201.8-8.001 4-8.801-2.4-.8-6.4-7.128-21.592-40 3.2-31.127 23.31-42.145 6.219-42.145 6.219l-6.401-1.819c-13-24-4.545 30.583-4.545 30.583 8.8 34.4 144.292-14.983 144.292-14.983s168.8-30.4 180-34.4c11.2-4 98.546 1.746 98.546 1.746l-4.946-21.382c-64.8-46.401-76.8-17.964-90.4-21.964-13.6-4-11.2 5.6-14.4 6.4-3.2.8-42.4-24-48.8-23.2z" fill="#fae5d7"/><path d="M345.292 241.055c-6.4.8-32.375-22.644-16.8 8.8 21.2 42.801-58.4 39.201-75.2 28.001-16.8-11.2 7.2 18.4 7.2 18.4 18.4 20-16 3.2-16 3.2-34.4-12.8-58.4 12.8-61.6 13.6-3.2.8-8 4-8.8-2.4-.8-6.4-6.997-21.424-40 3.2-32.365 24.055-43.074 7.509-43.074 7.509l-6.8-3.309c-12.8-23.2-3.872 32.091-3.872 32.091 8.8 34.4 144.946-16.291 144.946-16.291s168.801-30.4 180.001-34.4c11.2-4 97.672 1.672 97.672 1.672l-4.872-21.891c-64.801-46.4-76-17.381-89.6-21.381-13.6-4.001-11.2 5.6-14.4 6.4-3.201.8-42.401-24.001-48.801-23.201z" fill="#fcf2eb"/><path d="M84.2 319.601c-12.8-22.001-3.2 33.6-3.2 33.6 8.8 34.4 145.6-17.6 145.6-17.6s168.801-30.401 180.001-34.401c11.2-4 96.8 1.6 96.8 1.6l-4.8-22.4c-64.8-46.4-75.2-16.8-88.8-20.8-13.6-4-11.2 5.6-14.4 6.4-3.2.8-42.4-24-48.8-23.2-6.4.8-31.62-23.007-16.8 8.8 22.227 47.707-60.76 37.627-75.201 28-16.8-11.2 7.2 18.4 7.2 18.4 18.4 20.001-16 3.2-16 3.2-34.4-12.8-58.4 12.801-61.6 13.601-3.2.8-8 4-8.8-2.4-.8-6.401-6.865-21.257-40 3.2-33.6 24.8-44 8.8-44 8.8l-7.2-4.8z" fill="#fff"/><path d="M125.8 349.601s-7.2 11.6 13.6 24.8c0 0 1.4 1.4-16.6-2.8 0 0-6.2-2-7.8-12.4 0 0-4.8-4.4-9.6-10s20.4.4 20.4.4z" fill="#000"/><path d="M265.8 302s17.698 26.821 17.1 31.601c-1.3 10.4-1.5 20 1.7 24 3.201 4 12.001 37.2 12.001 37.2s-.4 1.2 12-36.8c0 0 11.6-16-8.4-34.4 0 0-35.201-28.801-34.401-21.601z" fill="#ccc"/><path d="M145.8 376.401s11.2 7.2-3.2 38.4l6.4-2.4s-.8 11.2-4 13.6l7.2-3.2s4.8 8 .8 12.8c0 0 16.8 8 16 14.4 0 0 6.4-8 2.4-14.4s-11.2-2.4-10.4-20.8l-8.8 3.2s5.6-8.8 5.6-15.2l-8 2.4s15.469-26.578 4.8-28c-6-.8-8.8-.8-8.8-.8z" fill="#000"/><path d="M178.2 393.201s2.8-4.4 0-3.6c-2.8.8-34 15.6-40 25.2 0 0 34.4-24.4 40-21.6zM188.6 401.201s2.8-4.4 0-3.6c-2.8.8-34 15.6-40 25.2 0 0 34.4-24.4 40-21.6zM201.8 386.001s2.8-4.4 0-3.6c-2.8.8-34 15.6-40 25.2 0 0 34.4-24.4 40-21.6zM178.6 429.601s0-6-2.8-5.2c-2.8.8-38.8 18.4-44.8 28 0 0 42-25.6 47.6-22.8zM179.8 418.801s1.2-4.8-1.6-4c-2 0-28.4 11.6-34.4 21.2 0 0 29.6-21.6 36-17.2zM165.4 466.401l-10 7.6s10.4-7.6 14-6.4c0 0-6.8 11.2-7.6 16.4 0 0 10.4-12.8 16-12.4 0 0 7.6.4 7.6 11.2 0 0 5.6-10.4 8.8-10 0 0 1.2 6.4 0 13.2 0 0 4-7.6 8-6 0 0 6.4-2 5.6 9.6 0 0 0 10.4-.8 13.2 0 0 5.6-26.4 8-26.8 0 0 8-1.2 12.8 7.6 0 0-4-7.6.8-5.6 0 0 10.8 1.6 14 8.4 0 0-6.8-12-1.2-8.8 0 0 6.8 0 8 6.4 0 0 8.4 21.2 10.4 22.8 0 0-7.6-21.6-6-21.6 0 0-2-12 3.2 2.8 0 0-3.2-14 2.4-13.2 5.6.8 10 10.8 18.4 8.4 0 0 9.601 5.6 11.601-63.6l-124.001 46.8z" fill="#ccc"/><path d="M170.2 373.601s14.8-6 54.8 0c0 0 7.2.4 14-8.4s33.6-16 40-14l9.601 6.4.8 1.2s12.4 10.4 12.8 18c.4 7.6-14.4 55.6-24.001 71.6-9.6 16-19.2 28.4-38.4 26 0 0-20.8-4-46.4 0 0 0-29.2-1.6-32-9.6-2.8-8 11.2-23.2 11.2-23.2s4.4-8.4 3.2-22.8c-1.2-14.4-.8-42.4-5.6-45.2z" fill="#000"/><path d="M192.2 375.601c8.4 18.4-21.2 83.6-21.2 83.6-2 1.6 12.66 7.645 22.8 5.2 10.946-2.638 51.2 1.6 51.2 1.6 23.6-15.6 36.4-60 36.4-60s10.401-24-7.2-27.2c-17.6-3.2-82-3.2-82-3.2z" fill="#e5668c"/><path d="M190.169 406.497c3.326-12.79 4.91-24.591 2.031-30.896 0 0 62.4 6.4 73.6-14.4 4.241-7.875 19.001 22.8 18.6 32.4 0 0-63 14.4-77.8 3.2l-16.431 9.696z" fill="#b23259"/><path d="M194.6 422.801s2 7.2-.4 11.2c0 0-1.6.8-2.8 1.2 0 0 1.2 3.6 7.2 5.2 0 0 2 4.4 4.4 4.8 2.4.4 7.2 6 11.2 4.8 4-1.2 15.2-5.2 15.2-5.2s5.6-3.2 14.4.4c0 0 2.375-.802 2.8-4.8.5-4.7 3.6-8.4 5.6-10.4 2-2 11.6-14.8 10.4-15.2-1.2-.4-68 8-68 8z" fill="#a5264c"/><path d="M190.2 374.401s-2.8 22.4.4 30.8c3.2 8.4 2.4 10.4 1.6 14.4-.8 4 3.6 14 9.2 20l12 1.6s15.2-3.6 24.4-.8c0 0 8.994 1.343 12.4-13.6 0 0 4.8-6.4 12-9.2 7.2-2.8 14.4-44.4 10.4-52.4s-18.4-12.4-34.4 3.2c-16 15.6-18-1.2-48 6z" fill="#ff727f" stroke="#000"/><path d="M191.8 449.201s-.8-2-5.2-2.4c0 0-22.4-3.6-30.8-16 0 0-6.8-5.6-2.4 6 0 0 10.4 20.4 17.2 23.2 0 0 16.4 4 21.2-10.8z" fill="#ffc" stroke="#000" stroke-width=".5"/><path d="M271.742 385.229c.659-7.906 2.612-16.52.858-20.028-6.446-12.894-23.419-7.506-34.4 3.2-16 15.6-18-1.2-48 6 0 0-1.745 13.963-.905 23.975 0 0 37.305-11.575 38.105-5.975 0 0 1.6-3.2 10.8-3.2 9.2 0 31.942-1.172 33.542-3.972z" fill="#cc3f4c"/><path d="M228.6 375.201s4.8 4.8 1.2 14.4c0 0-14.4 16-12.4 30" stroke="#a51926" stroke-width="2"/><path d="M180.6 460.001s-4.4-12.8 4.4-6c0 0 4.8 2 3.6 3.6-1.2 1.6-6.8 5.6-8 2.4zM185.64 461.201s-3.52-10.24 3.52-4.8c0 0 4.421 2.448 2.88 2.88-4.56 1.28 0 3.84-6.4 1.92zM190.44 461.201s-3.52-10.24 3.52-4.8c0 0 4.375 2.31 2.88 2.88-3.36 1.28 0 3.84-6.4 1.92zM197.04 461.401s-3.52-10.24 3.52-4.8c0 0 4.383 2.332 2.881 2.88-2.961 1.08 0 3.84-6.401 1.92zM203.52 461.321s-3.52-10.24 3.521-4.8c0 0 3.84 1.6 2.88 2.88-.96 1.28 0 3.84-6.401 1.92zM210.2 462.001s-4.8-12.4 4.4-6c0 0 4.8 2 3.6 3.6-1.2 1.6 0 4.8-8 2.4z" fill="#ffc" stroke="#000" stroke-width=".5"/><path d="M181.8 444.801s13.2-2.8 19.2.4c0 0 6 1.2 7.2.8 1.2-.4 4.4-.8 4.4-.8M215.8 453.601s12-13.6 24-9.2c7.016 2.573 6-.8 6.8-3.6.8-2.8 1-7 6-10" stroke="#a5264c" stroke-width="2"/><path d="M233 437.601s-4-10.8-6.8 2-6 16.4-7.6 19.2c0 0 0 5.2 8.4 4.8 0 0 10.8-.4 11.2-3.2.4-2.8-1.2-14.4-5.2-22.8z" fill="#ffc" stroke="#000" stroke-width=".5"/><path d="M247 444.801s3.6-2.4 6-1.2M253.5 428.401s2.9-4.9 7.7-5.7" stroke="#a5264c" stroke-width="2"/><path d="M174.2 465.201s18 3.2 22.4 1.6c0 0 8.8 0 .4 2 0 0-12.8 0-20.8-1.2 0 0-11.6-5.6-2-2.4z" fill="#b2b2b2"/><path d="M188.2 372.001s17.6 0 19.6.8c0 0 7.2 30.8 3.6 38.4 0 0-1.2 2.8-4-2.8 0 0-18.4-32.8-21.6-34.8-3.2-2 1.2-1.6 2.4-1.6zM111.1 369.301s8.9 1.7 21.5 4.3c0 0 4.8 22.4 8 27.2 3.2 4.8-.4 4.8-4 2s-18.4-16.8-20.4-21.2c-2-4.4-5.1-12.3-5.1-12.3zM132.961 373.818s5.8 1.548 6.809 3.763c1.008 2.214-1.202 5.511-1.202 5.511s-1 3.305-2.202 1.143c-1.202-2.163-4.074-9.823-3.405-10.417z" fill="#ffc" stroke="#000" stroke-width=".5"/><path d="M133 373.601s3.6 5.2 7.2 5.2 3.982-.413 6.8.2c4.6 1 4.2-1 10.8.2 2.64.48 5.2-.4 8 .8 2.8 1.2 6 .4 7.2-1.6 1.2-2 6-6.2 6-6.2s-12.8 1.8-15.6 2.6c0 0-22.4 1.2-30.4-1.2z" fill="#000"/><path d="M177.6 373.801s-6.45 3.5-6.85 5.9c-.4 2.4 5.25 6.1 5.25 6.1s2.75 4.6 3.35 2.2c.6-2.4-.95-13.8-1.75-14.2zM140.115 379.265s7.007 11.188 7.224-.023c0 0 .557-1.258-1.203-1.28-6.075-.076-4.554-4.178-6.021 1.303zM147.293 379.514s7.921 11.187 7.285-.093c0 0 .007-.332-1.746-.485-4.747-.414-4.402-4.932-5.539.578zM154.506 379.522s7.96 10.628 7.291.962c0 0 .119-1.233-1.535-1.534-3.892-.706-4.103-3.955-5.756.572zM161.382 379.602s7.9 11.561 8.248 1.78c0 0 1.644-1.378-.102-1.6-5.818-.74-5.02-5.194-8.146-.18z" fill="#ffc" stroke="#000" stroke-width=".5"/><path d="M125.208 383.132l-7.658-1.531c-2.6-5-4.7-11.15-4.7-11.15s6.35 1 18.85 3.8c0 0 .876 3.318 2.348 9.113l-8.84-.232zM190.276 378.47c-1.666-2.506-2.983-4.264-3.633-4.67-3.013-1.883 1.13-1.506 2.259-1.506 0 0 16.571 0 18.454.753 0 0 .524 2.242 1.208 5.633 0 0-10.088-2.01-18.288-.21z" fill="#e5e5b2"/><path d="M243.88 240.321c27.721 3.96 53.241-31.68 55.001-41.361 1.76-9.68-8.36-21.56-8.36-21.56 1.32-3.08-3.52-17.16-8.8-26.4-5.28-9.24-21.181-8.266-38.721-9.24-15.84-.88-34.32 22.44-35.64 24.2-1.32 1.76 4.84 40.041 6.16 45.761 1.32 5.72-1.32 32.12-1.32 32.12 34.24-9.1 3.96-7.48 31.68-3.52z" fill="#cc7226"/><path d="M208.088 166.608c-1.296 1.728 4.752 39.313 6.048 44.929 1.296 5.616-1.296 31.536-1.296 31.536 32.672-8.88 3.888-7.344 31.104-3.456 27.217 3.888 52.273-31.104 54.001-40.609 1.728-9.504-8.208-21.168-8.208-21.168 1.296-3.024-3.456-16.848-8.64-25.92-5.184-9.072-20.795-8.115-38.017-9.072-15.552-.864-33.696 22.032-34.992 23.76z" fill="#ea8e51"/><path d="M208.816 167.256c-1.272 1.696 4.664 38.585 5.936 44.097 1.272 5.512-1.272 30.952-1.272 30.952 31.404-9.16 3.816-7.208 30.528-3.392 26.713 3.816 51.305-30.528 53.001-39.857 1.696-9.328-8.056-20.776-8.056-20.776 1.272-2.968-3.392-16.536-8.48-25.44-5.088-8.904-20.41-7.965-37.313-8.904-15.264-.848-33.072 21.624-34.344 23.32z" fill="#efaa7c"/><path d="M209.544 167.904c-1.248 1.664 4.576 37.857 5.824 43.265 1.248 5.408-1.248 30.368-1.248 30.368 29.436-9.04 3.744-7.072 29.952-3.328 26.209 3.744 50.337-29.952 52.001-39.104 1.664-9.153-7.904-20.385-7.904-20.385 1.248-2.912-3.328-16.224-8.32-24.96-4.992-8.736-20.025-7.815-36.609-8.736-14.976-.832-32.448 21.216-33.696 22.88z" fill="#f4c6a8"/><path d="M210.272 168.552c-1.224 1.632 4.488 37.129 5.712 42.433 1.224 5.304-1.224 29.784-1.224 29.784 27.868-8.92 3.672-6.936 29.376-3.264 25.705 3.672 49.369-29.376 51.001-38.353 1.632-8.976-7.752-19.992-7.752-19.992 1.224-2.856-3.264-15.912-8.16-24.48-4.896-8.568-19.64-7.665-35.905-8.568-14.688-.816-31.824 20.808-33.048 22.44z" fill="#f9e2d3"/><path d="M244.2 236.8c25.2 3.6 48.401-28.8 50.001-37.6 1.6-8.8-7.6-19.6-7.6-19.6 1.2-2.8-3.201-15.6-8.001-24-4.8-8.4-19.254-7.514-35.2-8.4-14.4-.8-31.2 20.4-32.4 22-1.2 1.6 4.4 36.4 5.6 41.6 1.2 5.2-1.2 29.2-1.2 29.2 25.5-8.6 3.6-6.8 28.8-3.2z" fill="#fff"/><path d="M290.601 202.8s-27.801 7.6-39.401 6c0 0-15.8-6.6-24.6 15.2 0 0-3.6 7.2-5.6 9.2-2 2 69.601-30.4 69.601-30.4z" fill="#ccc"/><path d="M294.401 200.6s-29.001 12.2-39.001 11.8c0 0-16.4-4.6-24.8 10 0 0-8.4 9.2-11.6 10.8 0 0-.4 1.6 6-2.4l10.4 5.2s14.8 9.6 24.4-6.4c0 0 4-11.2 4-13.2s21.2-7.6 22.801-8c1.6-.4 8.2-4.6 7.8-7.8z" fill="#000"/><path d="M247 236.514c-6.872 0-15.245-3.865-15.245-10.114 0-6.248 8.373-12.513 15.245-12.513 6.874 0 12.446 5.065 12.446 11.313 0 6.249-5.572 11.314-12.446 11.314z" fill="#99cc32"/><path d="M243.377 219.83c-4.846.722-9.935 2.225-9.863 2.009 1.54-4.619 7.901-7.952 13.486-7.952 4.296 0 8.084 1.978 10.32 4.988 0 0-5.316-.33-13.943.955z" fill="#659900"/><path d="M255.4 219.6s-4.4-3.2-4.4-1c0 0 3.6 4.4 4.4 1z" fill="#fff"/><path d="M245.4 227.726c-2.499 0-4.525-2.026-4.525-4.526 0-2.499 2.026-4.525 4.525-4.525 2.5 0 4.526 2.026 4.526 4.525 0 2.5-2.026 4.526-4.526 4.526z" fill="#000"/><path d="M141.4 214.4s-3.2-21.2-.8-25.6c0 0 10.8-10 10.4-13.6 0 0-.4-18-1.6-18.8-1.2-.8-8.8-6.8-14.8-.4 0 0-10.4 18-9.6 24.4v2s-7.6-.4-9.2 1.6c0 0-1.2 5.2-2.4 5.6 0 0-2.8 2.4-.8 5.2 0 0-2 2.4-1.6 6.4l7.6 4s2 14.4 12.8 19.6c4.836 2.329 8-4.4 10-10.4z" fill="#cc7226"/><path d="M140.4 212.56s-2.88-19.08-.72-23.04c0 0 9.72-9 9.36-12.24 0 0-.36-16.2-1.44-16.92-1.08-.72-7.92-6.12-13.32-.36 0 0-9.36 16.2-8.64 21.96v1.8s-6.84-.36-8.28 1.44c0 0-1.08 4.68-2.16 5.04 0 0-2.52 2.16-.72 4.68 0 0-1.8 2.16-1.44 5.76l6.84 3.6s1.8 12.96 11.52 17.64c4.352 2.095 7.2-3.96 9-9.36z" fill="#fff"/><path d="M148.95 157.39c-1.09-.86-8.58-6.63-14.43-.39 0 0-10.14 17.55-9.36 23.79v1.95s-7.41-.39-8.97 1.56c0 0-1.17 5.07-2.34 5.46 0 0-2.73 2.34-.78 5.07 0 0-1.95 2.34-1.56 6.24l7.41 3.9s1.95 14.04 12.48 19.11c4.714 2.27 7.8-4.29 9.75-10.14 0 0-3.12-20.67-.78-24.96 0 0 10.53-9.75 10.14-13.26 0 0-.39-17.55-1.56-18.33z" fill="#eb955c"/><path d="M148.5 158.38c-.98-.92-8.36-6.46-14.06-.38 0 0-9.88 17.1-9.12 23.18v1.9s-7.22-.38-8.74 1.52c0 0-1.14 4.94-2.28 5.32 0 0-2.66 2.28-.76 4.94 0 0-1.9 2.28-1.52 6.08l7.22 3.8s1.9 13.68 12.16 18.62c4.594 2.212 7.6-4.18 9.5-9.88 0 0-3.04-20.14-.76-24.32 0 0 10.26-9.5 9.88-12.92 0 0-.38-17.1-1.52-17.86z" fill="#f2b892"/><path d="M148.05 159.37c-.87-.98-8.14-6.29-13.69-.37 0 0-9.62 16.65-8.88 22.57v1.85s-7.03-.37-8.51 1.48c0 0-1.11 4.81-2.22 5.18 0 0-2.59 2.22-.74 4.81 0 0-1.85 2.22-1.48 5.92l7.03 3.7s1.85 13.32 11.84 18.13c4.473 2.154 7.4-4.07 9.25-9.62 0 0-2.96-19.61-.74-23.68 0 0 9.99-9.25 9.62-12.58 0 0-.37-16.65-1.48-17.39z" fill="#f8dcc8"/><path d="M140.4 212.46s-2.88-18.98-.72-22.94c0 0 9.72-9 9.36-12.24 0 0-.36-16.2-1.44-16.92-.76-1.04-7.92-6.12-13.32-.36 0 0-9.36 16.2-8.64 21.96v1.8s-6.84-.36-8.28 1.44c0 0-1.08 4.68-2.16 5.04 0 0-2.52 2.16-.72 4.68 0 0-1.8 2.16-1.44 5.76l6.84 3.6s1.8 12.96 11.52 17.64c4.352 2.095 7.2-4.06 9-9.46z" fill="#fff"/><path d="M137.3 206.2s-21.6-10.2-22.5-11c0 0 9.1 8.2 9.9 8.2.8 0 12.6 2.8 12.6 2.8z" fill="#ccc"/><path d="M120.2 200s18.4 3.6 18.4 8c0 2.912-.243 16.331-5.6 14.8-8.4-2.4-4.8-16.8-12.8-22.8z" fill="#000"/><path d="M128.6 203.8s8.978 1.474 10 4.2c.6 1.6 1.263 9.908-4.2 11-4.552.911-6.782-9.31-5.8-15.2z" fill="#99cc32"/><path d="M214.595 246.349c-.497-1.742.814-1.611 2.605-2.149 2-.6 14.2-4.4 15-7 .8-2.6 14 1.8 14 1.8 1.8.8 6.2 3.4 6.2 3.4 4.8 1.2 11.4 1.6 11.4 1.6 2.4 1 5.8 3.8 5.8 3.8 14.6 10.2 27.001 3 27.001 3 20-6.6 14-23.8 14-23.8-3-9 .2-12.4.2-12.4.2-3.8 7.4 2.6 7.4 2.6 2.6 4.2 3.4 9.2 3.4 9.2 8 11.2 4.6-6.6 4.6-6.6.2-1-2.6-4.6-2.6-5.8 0-1.2-1.8-4.6-1.8-4.6-3-3.4-.6-10.4-.6-10.4 1.8-13.8-.4-12-.4-12-1.2-1.8-10.4 8.2-10.4 8.2-2.2 3.4-8.2 5-8.2 5-2.8 1.8-6.2.4-6.2.4-2.6-.4-8.2 6.6-8.2 6.6 2.8-.2 5.2 4.2 7.6 4.4 2.4.2 4.2-2.4 5.8-3 1.6-.6 4.4 5.2 4.4 5.2.4 2.6-5.2 7.4-5.2 7.4-.4 4.6-2 3-2 3-3-.6-4.2 3.2-5.2 7.8s-5.2 5-5.2 5c-1.6 7.4-2.801 4.4-2.801 4.4-.2-5.6-6.2.2-6.2.2-1.2 2-5.8-.2-5.8-.2-6.8-2-4.4-4-4.4-4 1.8-2.2 13 0 13 0 2.2-1.6-5.8-5.6-5.8-5.6-.6-1.8.4-6.2.4-6.2 1.2-3.2 8-8.8 8-8.8 9.401-1.2 6.601-2.8 6.601-2.8-6.2-5.2-12.001 2.4-12.001 2.4-2.2 6.2-19.6 21.2-19.6 21.2-4.8 3.4-2.2-3.4-6.2 0s-24.6-5.6-24.6-5.6c-11.562-1.193-14.294 14.549-17.823 11.429 0 0 5.418 8.52 3.818 2.92zM409.401 80s-25.6 8-28.4 26.8c0 0-2.4 22.8 18 40.4 0 0 .4 6.4 2.4 9.6 0 0-1.6 4.8 17.2-2.8l27.2-8.4s6.4-2.4 11.6-11.2c5.2-8.8 20.4-27.6 16.8-52.8 0 0 1.2-11.2-4.8-11.6 0 0-8.4-1.6-15.6 6 0 0-6.8 3.2-9.2 2.8l-35.2 1.2zM464.022 79.01s2.1-8.93-2.74-4.09c0 0-7.04 5.72-14.521 5.72 0 0-14.52 2.2-18.92 15.4 0 0-3.96 26.84 3.96 32.56 0 0 4.84 7.48 11.88.88 7.041-6.6 22.541-36.83 20.341-50.47z" fill="#000"/><path d="M463.648 79.368s2.09-8.744-2.662-3.992c0 0-6.912 5.616-14.257 5.616 0 0-14.256 2.16-18.576 15.12 0 0-3.888 26.352 3.888 31.968 0 0 4.752 7.344 11.664.864 6.913-6.48 22.103-36.184 19.943-49.576z" fill="#323232"/><path d="M463.274 79.726s2.08-8.558-2.584-3.894c0 0-6.784 5.512-13.993 5.512 0 0-13.992 2.12-18.232 14.84 0 0-3.816 25.864 3.816 31.376 0 0 4.664 7.208 11.448.848 6.785-6.36 21.665-35.538 19.545-48.682z" fill="#666"/><path d="M462.9 80.084s2.07-8.372-2.506-3.796c0 0-6.656 5.408-13.729 5.408 0 0-13.728 2.08-17.888 14.56 0 0-3.744 25.376 3.744 30.784 0 0 4.576 7.072 11.232.832 6.657-6.24 21.227-34.892 19.147-47.788z" fill="#999"/><path d="M462.526 80.442s2.06-8.186-2.428-3.698c0 0-6.529 5.304-13.465 5.304 0 0-13.464 2.04-17.544 14.28 0 0-3.672 24.888 3.672 30.192 0 0 4.488 6.936 11.016.816s20.789-34.246 18.749-46.894z" fill="#ccc"/><path d="M462.151 80.8s2.05-8-2.35-3.6c0 0-6.4 5.2-13.2 5.2 0 0-13.2 2-17.2 14 0 0-3.6 24.4 3.6 29.6 0 0 4.4 6.8 10.8.8s20.35-33.6 18.35-46z" fill="#fff"/><path d="M250.6 284s-20.4-19.2-28.4-20c0 0-34.4-4-49.2 14 0 0 17.6-20.4 45.2-14.8 0 0-21.6-4.4-34-1.2 0 0-16.8 0-26.4 14l-2.8 4.8s4-14.8 22.4-20.8c0 0 22.8-4.8 33.6 0 0 0-21.6-6.8-31.6-4.8 0 0-30.4-2.4-43.2 24 0 0 4-14.4 18.8-21.6 0 0 13.6-8.8 34-6 0 0 14.4 3.2 19.6 5.6 5.2 2.4 4-.4-4.4-5.2 0 0-5.6-10-19.6-9.6 0 0-42.8 3.6-53.2 15.6 0 0 13.6-11.2 24-14 0 0 22.4-8 30.8-7.2 0 0 24.8 1 32.4-3 0 0-11.2 5-8 8.2 3.2 3.2 10 10.8 10 12 0 1.2 24.2 23.3 27.8 27.7l2.2 2.3z" fill="#992600"/><path d="M389 478s-15.5-36.5-28-46c0 0 26 16 29.5 34 0 0 0 10-1.5 12zM436 485.5s-26.5-55-45-79c0 0 43.5 37.5 48.5 64l.5 5.5-3-2.5s-.5 9-1 12zM492.5 437s-62.5-59.5-64-62c0 0 60.5 66 63.5 73.5 0 0-2-9 .5-11.5zM304 480.5s19.5-52 38.5-29.5c0 0 15 10 14.5 13 0 0-4-6.5-22-6 0 0-19-3-31 22.5zM494.5 353s-45-28.5-52.5-30c-11.807-2.361 49.5 29 54.5 39.5 0 0 2-2.5-2-9.5z" fill="#ccc"/><path d="M343.801 459.601s20.4-2 27.2-8.8l4.4 3.6 17.6-38.4 3.6 5.2s14.4-14.8 13.6-22.8c-.8-8 12.8 6 12.8 6s-.8-11.6 6.4-4.8c0 0-2.4-15.6 6-7.6 0 0-10.537-30.157 12-4.4 5.6 6.4 1.2-.4 1.2-.4s-26-48-4.4-33.6c0 0 2-22.8.8-27.2-1.2-4.4-3.2-26.801-8-32.001-4.8-5.2.4-6.8 6-1.6 0 0-11.2-24 2-12 0 0-3.6-15.2-8-18 0 0-5.6-17.2 9.6-6.4 0 0-4.4-12.4-7.6-15.6 0 0-11.6-27.6-4.4-22.8l4.4 3.6s-6.8-14-.4-9.6c6.4 4.4 6.4 4 6.4 4s-21.2-33.2-.8-15.6c0 0-8.159-13.918-11.6-20.8 0 0-18.8-20.4-4.4-14l4.8 1.6s-8.8-10-16.8-11.6c-8-1.6 2.4-8 8.8-6s22 9.6 22 9.6 12.8 18.8 16.8 19.2c0 0-20-7.6-14 .4 0 0 14.4 14 7.2 13.6 0 0-6 7.2-1.2 16 0 0-18.459-18.391-3.6 7.2l6.8 16.4s-24.4-24.8-13.2-2.8c0 0 17.2 23.6 19.2 24 2 .4 6.4 9.2 6.4 9.2l-4.4-2 5.2 8.8s-11.2-12-5.2 1.2l5.6 14.4s-20.4-22-6.8 7.6c0 0-16.4-5.2-7.6 12 0 0-1.6 16.001-1.2 21.201.4 5.2 1.6 33.6-2.8 41.6s6 27.2 8 31.2 5.6 14.8-3.2 5.6c-8.8-9.2-4.4-3.6-2.4 5.2 2 8.8 8 24.4 7.2 30 0 0-1.2 1.2-4.4-2.4 0 0-14.8-22.8-13.2-8.4 0 0-1.2 8-4.4 16.8 0 0-3.2 10.8-3.2 2 0 0-3.2-16.8-6-9.2-2.8 7.6-6.4 13.6-9.2 16-2.8 2.4-8-20.4-9.2-10 0 0-12-12.4-16.8 4l-11.6 16.4s-.4-12.4-1.6-6.4c0 0-30 6-40.4 1.6zM309.401 102.8s-11.6-8-15.6-7.6c-4 .4 27.6-8.8 68.8 18.8 0 0 4.8 2.8 8.4 2.4 0 0 3.2 2.4.4 6 0 0-8.8 9.6 2.4 20.8 0 0 18.4 6.8 12.8-2 0 0 10.8 4 13.2 8 2.4 4 1.2 0 1.2 0s-6.4-7.2-12.4-12.4c0 0-5.2-2-8-10.4s-5.2-18.4-.8-21.6c0 0-4 4.4-3.2.4.8-4 4.4-7.6 6-8 1.6-.4 18-16.2 24.8-16.6 0 0-9.2 1.4-12.2.4-3-1-29.6-12.4-35.6-13.6 0 0-16.8-6.6-4.8-4.6 0 0 35.8 3.8 54 17 0 0-7.2-8.4-25.6-15.4 0 0-22.2-12.6-57.4-7.6 0 0-17.8 3.2-25.6 5 0 0-2.6-.6-3.2-1-.6-.4-12.401-9.4-40.001-2.4 0 0-17 4.6-25.6 9.4 0 0-15.2 1.2-18.8 4.4 0 0-18.6 14.6-20.6 15.4-2 .8-13.4 8.4-14.2 8.8 0 0 24.6-6.6 27-9 2.4-2.4 19.8-5 22.2-3.6 2.4 1.4 10.8.8 1.2 1.4 0 0 75.601 14.8 76.401 16.8.8 2 4.8.8 4.8.8z" fill="#000"/><path d="M380.801 93.6s-10.2-7.4-12.2-7.4-14.4-10.2-18.6-9.8c-4.2.4-16.4-9.6-43.8-1.4 0 0-.6-2 3-2.8 0 0 6.4-2.2 6.8-2.8 0 0 20.2-4.2 27.4-.6 0 0 9.2 2.6 15.4 8.8 0 0 11.2 3.2 14.4 2.2 0 0 8.8 2.2 9.2 4 0 0 5.8 3 4 5.6 0 0 .4 1.6-5.6 4.2zM368.33 91.491c.807.632 1.826.73 2.431 1.539.234.314-.055.64-.37.737-1.043.317-2.099-.253-3.241.335-.402.207-1.044.025-1.597-.124-1.632-.441-3.461-.466-5.152.222-1.985-1.129-4.345-.545-6.426-1.546-.058-.027-.28.319-.354.292-3.046-1.145-6.789-.862-9.22-3.146-2.428-.412-4.785-.874-7.213-1.554-1.818-.509-3.227-1.498-4.847-2.33-1.377-.708-2.834-1.23-4.368-1.602-1.863-.452-3.694-.34-5.587-.86l-.367.292c-.324-.108-.614-.691-.785-.638-1.681.522-3.169-.45-4.833-.108-1.178-1.224-2.906-.979-4.452-1.421-2.964-.848-6.118.422-9.148-.579 4.113-1.842 8.8-.61 12.862-2.679 2.328-1.186 4.99-.084 7.56-.844.487-.144 1.178-.346 1.578.323.134-.135.316-.374.374-.346 2.45 1.157 4.765 2.431 7.247 3.497.341.146.873-.086 1.125.116 1.52 1.216 3.463 1.113 4.854 2.333 1.698-.502 3.491-.122 5.22-.746.077-.027.311.314.344.292 1.13-.748 2.285-.477 3.177-.173.338.115 1.001.362 1.306.436 1.126.276 1.982.756 3.161.939.114.018.299-.322.371-.294 1.123.438 2.165.382 2.821 1.546.135-.135.3-.373.382-.346 1.027.338 1.676 1.093 2.777 1.334.485.106 1.097.732 1.673.908 2.392.731 4.235 2.26 6.429 3.155.759.31 1.635.544 2.268 1.04zM291.696 77.261c-2.518-1.725-4.886-2.831-7.328-4.617-.181-.133-.541.037-.743-.085-1.007-.609-1.895-1.19-2.877-1.886-.539-.382-1.36-.371-1.868-.629-2.544-1.292-5.173-1.85-7.68-3.044.682-.638 1.804-.394 2.4-1.2.195.28.433.564.786.373 1.678-.904 3.528-1.057 5.204-.967 1.704.092 3.424.397 5.199.669.307.047.506.57.829.667 2.228.663 4.617.138 6.736.976 1.591.629 3.161 1.452 4.4 2.727.252.26-.073.561-.353.755.388-.109.661.097.772.41.084.239.084.541 0 .78-.112.312-.391.413-.765.464-1.407.19.365-1.19-.335-.742-1.273.814-.527 2.22-1.272 3.488-.28-.194-.51-.412-.4-.8.234.522-.368.812-.536 1.128-.385.725-1.284 2.14-2.169 1.533zM259.198 84.609c-3.154-.794-6.204-.679-9.22-1.955l-.354.292c-1.366-.594-2.284-1.56-3.36-2.606-.913-.888-2.571-.501-3.845-.988-.324-.124-.527-.636-.828-.675-1.219-.157-2.146-1.106-3.191-1.677 2.336-.795 4.747-.764 7.209-1.148l.391.303c.136 0 .266-.221.4-.355.195.28.497.606.754.352.548-.54 1.104-.35 1.644-.31l.402.313.4-.311.4.311c.136 0 .266-.221.4-.355.692.782 1.577.228 2.399.407 1.038.227 1.305 1.375 2.379 1.673 4.715 1.304 8.852 3.449 13.215 5.536.307.147.517.395.407.784.267 0 .58-.088.77.044 1.058.732 2.099 1.28 2.796 2.378.216.339-.113.746-.346.694-4.429-.995-8.435-1.603-12.822-2.707zM245.338 128.821c-1.592-1.219-2.176-3.25-3.304-5.042-.214-.34.06-.654.377-.743.56-.159 1.103.319 1.512.521 1.745.862 3.28 2.104 5.277 2.243 1.99 2.234 6.25 2.619 6.257 6 .001.859-1.427-.059-1.857.8-2.451-1.003-4.84-.9-7.22-2.367-.617-.381-.287-.834-1.042-1.412zM217.8 76.244c.135.001 7.166.234 7.149.348-.045.309-7.775 1.358-8.139 1.188-.164-.076-7.676 2.354-7.81 2.22.268-.135 8.534-3.756 8.8-3.756z" fill="#cc7226"/><path d="M233.2 86s-14.8 1.8-19.2 3c-4.4 1.2-23 8.8-26 10.8 0 0-13.4 5.4-30.4 25.4 0 0 7.6-3.4 9.8-6.2 0 0 13.6-12.6 13.4-10 0 0 12.2-8.6 11.6-6.4 0 0 24.4-11.2 22.4-8 0 0 21.6-4.6 20.6-2.6 0 0 18.8 4.4 16 4.6 0 0-5.8 1.2.6 4.8 0 0-3.4 4.4-8.8.4s-2.4-1.8-7.4-.8c0 0-2.6.8-7.2-3.2 0 0-5.6-4.6-14.4-1 0 0-30.6 12.6-32.6 13.2 0 0-3.6 2.8-6 6.4 0 0-5.8 4.4-8.8 5.8 0 0-12.8 11.6-14 13 0 0-3.4 5.2-4.2 5.6 0 0 6.4-3.8 8.4-5.8 0 0 14-10 19.4-10.8 0 0 4.4-3 5.2-4.4 0 0 14.4-9.2 18.6-9.2 0 0 9.2 5.2 11.6-1.8 0 0 5.8-1.8 11.4-.6 0 0 3.2-2.6 2.4-4.8 0 0 1.6-1.8 2.6 2 0 0 3.4 3.6 8.2 1.6 0 0 4-.2 2 2.2 0 0-4.4 3.8-16.2 4 0 0-12.4.6-28.8 8.2 0 0-29.8 10.4-39 20.8 0 0-6.4 8.8-11.8 10 0 0-5.8.8-11.8 8.2 0 0 9.8-5.8 18.8-5.8 0 0 4-2.4.2 1.2 0 0-3.6 7.6-2 13 0 0-.6 5.2-1.4 6.8 0 0-7.8 12.8-7.8 15.2 0 2.4 1.2 12.2 1.6 12.8.4.6-1-1.6 2.8.8 3.8 2.4 6.6 4 7.4 6.8.8 2.8-2-5.4-2.2-7.2-.2-1.8-4.4-9-3.6-11.4 0 0 1 1 1.8 2.4 0 0-.6-.6 0-4.2 0 0 .8-5.2 2.2-8.4 1.4-3.2 3.4-7 3.8-7.8.4-.8.4-6.6 1.8-4l3.4 2.6s-2.8-2.6-.6-4.8c0 0-1-5.6.8-8.2 0 0 7-8.4 8.6-9.4 1.6-1 .2-.6.2-.6s6-4.2.2-2.6c0 0-4 1.6-7 1.6 0 0-7.6 2-3.6-2.2 4-4.2 14-9.6 17.8-9.4l.8 1.6 11.2-2.4-1.2.8s-.2-.2 4-.6c4.2-.4 10 1 11.4-.8 1.4-1.8 4.8-2.8 4.4-1.4-.4 1.4-.6 3.4-.6 3.4s5-5.8 4.4-3.6c-.6 2.2-8.8 7.4-10.2 13.6l10.4-8.2 3.6-3s3.6 2.2 3.8.6c.2-1.6 4.8-7.4 6-7.2 1.2.2 3.2-2.6 3 0-.2 2.6 7.4 8 7.4 8s3.2-1.8 4.6-.4c1.4 1.4 5.6-19.8 5.6-19.8l25-10.6 43.601-3.4-17-6.8-61.001-11.4z" fill="#000"/><path d="M251.4 285s-15-16.8-23.4-19.4c0 0-13.4-6.8-38 1M224.8 264.2s-25.2-8-40.6-3.8c0 0-18.4 2-26.8 15.8M221.2 263s-17-7.2-31.8-9.4c0 0-16.6-2.6-33.2 4.6 0 0-12.2 6-17.6 16.2M222.2 263.4s-15.4-11-16.4-12.4c0 0-7-11-20-11.4 0 0-21.4.8-38.6 8.8" stroke="#4c0000" stroke-width="2"/><path d="M220.895 254.407c1.542 1.463 28.505 30.393 28.505 30.393 35.2 36.601 7.2 2.4 7.2 2.4-7.6-4.8-16.8-23.6-16.8-23.6-1.2-2.8 14 7.2 14 7.2 4 .8 17.6 20 17.6 20-6.8-2.4-2 4.8-2 4.8 2.8 2 23.201 17.601 23.201 17.601 3.6 4 7.6 5.6 7.6 5.6 14-5.2 7.6 8 7.6 8 2.4 6.8 8-4.8 8-4.8 11.2-16.801-5.2-14.4-5.2-14.4-30.001 2.8-36.801-13.201-36.801-13.201-2.4-2.4 6.4 0 6.4 0 8.401 2-7.2-12.4-7.2-12.4 2.4 0 11.6 6.8 11.6 6.8 10.401 9.2 12.401 7.2 12.401 7.2 18-8.8 28.4-1.2 28.4-1.2 2 1.6-3.6 8.4-2 13.601 1.6 5.2 6.4 17.6 6.4 17.6-2.4 1.6-2 12.4-2 12.4 16.8 23.2 7.2 21.2 7.2 21.2-15.6-.4-.8 7.2-.8 7.2 3.2 2 12 9.2 12 9.2-2.8-1.2-4.4 4-4.4 4 4.8 4 2 8.8 2 8.8-6 1.2-7.2 5.2-7.2 5.2 6.8 8-3.2 8.4-3.2 8.4 3.6 4.4-1.2 16.4-1.2 16.4-4.8 0-11.2 5.6-11.2 5.6 2.4 4.8-8 10.4-8 10.4-8.4 1.6-5.6 8.4-5.6 8.4-8 6-10.4 22-10.4 22-.8 10.4-3.2 13.6 2 11.6s4.4-14.4 4.4-14.4c-4.8-15.6 38-31.6 38-31.6 4-1.6 4.8-6.8 4.8-6.8 2 .4 10.8 8 10.8 8 7.6 11.2 8 2 8 2 1.2-3.6-.4-9.6-.4-9.6 6-21.6-8-28-8-28-10-33.6 4-25.2 4-25.2 2.8 5.6 13.6 10.8 13.6 10.8l3.6-2.4c-1.6-4.8 6.8-10.8 6.8-10.8 2.8 6.4 8.8-1.6 8.8-1.6 3.6-24.4 16-10 16-10 4 1.2 5.2-5.6 5.2-5.6 3.6-10.4 0-24 0-24 3.6-.4 13.2 5.6 13.2 5.6 2.8-3.6-6.4-20.4-2.4-18 4 2.4 8.4 4 8.4 4 .8-2-9.2-14.4-9.2-14.4-4.4-2.801-9.6-23.201-9.6-23.201 7.2 3.6-2.8-11.6-2.8-11.6 0-3.2 6-14.4 6-14.4-.8-6.8 0-6.4 0-6.4 2.8 1.2 10.8 2.8 4-3.6-6.8-6.4.8-11.2.8-11.2 4.4-2.8-9.2-2.4-9.2-2.4-5.2-4.4-4.8-8.4-4.8-8.4 8 2-6.4-12.4-8.8-16-2.4-3.6 7.2-8.8 7.2-8.8 13.2-3.6 1.6-6.8 1.6-6.8-19.6.4-8.8-10.4-8.8-10.4 6 .4 4.4-2 4.4-2-5.2-1.2-14.8-7.6-14.8-7.6-4-3.6-.4-2.8-.4-2.8 16.8 1.2-12-10-12-10 8 0-10-10.4-10-10.4-2-1.6-5.2-9.2-5.2-9.2-6-5.2-10.8-12-10.8-12-.4-4.4-5.2-9.2-5.2-9.2-11.6-13.6-17.2-13.2-17.2-13.2-14.8-3.6-20-2.8-20-2.8l-52.801 4.4c-26.4 12.8-18.6 33.8-18.6 33.8 6.4 8.4 15.6 4.6 15.6 4.6 4.6-6.2 16.2-4 16.2-4 20.401 3.2 17.801-.4 17.801-.4-2.4-4.6-18.601-10.8-18.801-11.4-.2-.6-9-4-9-4-3-1.2-7.4-10.4-7.4-10.4-3.2-3.4 12.6 2.4 12.6 2.4-1.2 1 6.2 5 6.2 5 17.401-1 28.001 9.8 28.001 9.8 10.8 16.6 11 8.4 11 8.4 2.8-9.4-9-30.6-9-30.6.4-2 8.6 4.6 8.6 4.6 1.4-2 2.2 3.8 2.2 3.8.2 2.4 4 10.4 4 10.4 2.8 13 6.4 5.6 6.4 5.6l4.6 9.4c1.4 2.6-4.6 10.2-4.6 10.2-.2 2.8.6 2.6-5 10.2s-2.2 12-2.2 12c-1.4 6.6 7.4 6.2 7.4 6.2 2.6 2.2 6 2.2 6 2.2 1.8 2 4.2 1.4 4.2 1.4 1.6-3.8 7.8-1.8 7.8-1.8 1.4-2.4 9.6-2.8 9.6-2.8 1-2.6 1.4-4.2 4.8-4.8 3.4-.6-21.2-43.6-21.2-43.6 6.4-.8-1.8-13.2-1.8-13.2-2.2-6.6 9.2 8 11.4 9.4 2.2 1.4 3.2 3.6 1.6 3.4-1.6-.2-3.4 2-2 2.2 1.4.2 14.4 15.2 17.8 25.4 3.4 10.2 9.4 14.2 15.6 20.2 6.2 6 5.4 30.2 5.4 30.2-.4 8.8 5.6 19.4 5.6 19.4 2 3.8-2.2 22-2.2 22-2 2.2-.6 3-.6 3 1 1.2 7.8 14.4 7.8 14.4-1.8-.2 1.8 3.4 1.8 3.4 5.2 6-1.2 3-1.2 3-6-1.6 1 8.2 1 8.2 1.2 1.8-7.8-2.8-7.8-2.8-9.2-.6 2.4 6.6 2.4 6.6 8.6 7.2-2.8 2.8-2.8 2.8-4.6-1.8-1.4 5-1.4 5 3.2 1.6 20.4 8.6 20.4 8.6.4 3.801-2.6 8.801-2.6 8.801.4 4-1.8 7.4-1.8 7.4-1.2 8.2-1.8 9-1.8 9-4.2.2-11.6 14-11.6 14-1.8 2.6-12 14.6-12 14.6-2 7-20-.2-20-.2-6.6 3.4-4.6 0-4.6 0-.4-2.2 4.4-8.2 4.4-8.2 7-2.6 4.4-13.4 4.4-13.4 4-1.4-7.2-4.2-7-5.4.2-1.2 6-2.6 6-2.6 8-2 3.6-4.4 3.6-4.4-.6-4 2.4-9.6 2.4-9.6 11.6-.8 0-17.001 0-17.001-10.8-7.6-11.8-13.4-11.8-13.4 12.6-8.2 4.4-20.6 4.6-24.2l1.4-25.2c-2-6.2-5-19.8-5-19.8 2.2-5.2 9.6-17.8 9.6-17.8 2.8-4.2 11.6-9 9.4-12-2.2-3-10-1.2-10-1.2-7.8-1.4-7.2 3.8-7.2 3.8-1.6 1-2.4 6-2.4 6-.721 7.933-9.6 14.2-9.6 14.2-11.2 6.2-2 10.2-2 10.2 6 6.6-3.8 6.8-3.8 6.8-11-1.8-2.8 8.4-2.8 8.4 10.8 12.8 7.8 15.6 7.8 15.6-10.2 1 2.4 10.2 2.4 10.2s-.8-2-.6-.2c.2 1.8 3.2 6 4 8 .8 2-3.2 2.2-3.2 2.2.6 9.6-14.8 5.4-14.8 5.4l-1.6.2c-1.6.2-12.8-.6-18.6-2.8-5.8-2.2-12.6-2.2-12.6-2.2s-4 1.8-11.601 1.6c-7.6-.2-15.6 2.6-15.6 2.6-4.4-.4 4.2-4.8 4.4-4.6.2.2 5.8-5.4-2.2-4.8-21.797 1.635-32.6-8.6-32.6-8.6-2-1.4-4.6-4.2-4.6-4.2-10-2 1.4 12.4 1.4 12.4 1.2 1.4-.2 2.4-.2 2.4-.8-1.6-8.6-7-8.6-7-2.811-.973-4.174-2.307-6.505-4.793z" fill="#000"/><path d="M197 242.8s11.6 5.6 14.2 8.4c2.6 2.8 16.6 14.2 16.6 14.2s-5.4-2-8-3.8c-2.6-1.8-13.4-10-13.4-10s-3.8-6-9.4-8.8z" fill="#4c0000"/><path d="M138.991 211.603c.337-.148-.187-2.86-.391-3.403-1.022-2.726-10-4.2-10-4.2-.227 1.365-.282 2.961-.176 4.599 0 0 4.868 5.519 10.567 3.004z" fill="#99cc32"/><path d="M138.991 211.403c-.449.158-.015-2.734-.191-3.203-1.022-2.726-10.2-4.3-10.2-4.3-.227 1.365-.282 2.961-.176 4.599 0 0 4.268 5.119 10.567 2.904z" fill="#659900"/><path d="M134.6 211.546c-.625 0-1.131-1.14-1.131-2.546 0-1.405.506-2.545 1.131-2.545s1.132 1.14 1.132 2.545c0 1.406-.507 2.546-1.132 2.546zM134.6 209zM89 309.601s-5.6 10 19.2 4c0 0 14-1.2 16.4-3.6 1.2.8 9.566 3.733 12.4 4.4 6.8 1.6 15.2-8.401 15.2-8.401s4.6-10.5 7.4-10.5c2.8 0-.4 1.6-.4 1.6s-6.6 10.101-6.2 11.701c0 0-5.2 20-21.2 20.8 0 0-16.15.95-14.8 6.8 0 0 8.8-2.4 11.2 0 0 0 10.8-.4 2.8 6l-6.8 11.6s.14 3.918-10 .4c-9.8-3.4-20.1-16.3-20.1-16.3s-15.95-14.55-5.1-28.5z" fill="#000"/><path d="M87.8 313.601s-2 9.6 34.8-.8c0 0 4.4 0 6.8.8 2.4.8 14.4 3.6 16.4 2.4 0 0-7.2 13.6-18.8 12 0 0-13.2 1.6-12.8 6.4 0 0 4 7.2 8.8 9.6 0 0 2.8 2.4 2.4 5.6-.4 3.2-3.2 4.8-5.2 5.6-2 .8-5.2-2.4-6.8-2.4-1.6 0-10-6.4-14.4-11.2-4.4-4.8-12.8-16.8-12.4-19.6l1.2-8.4z" fill="#e59999"/><path d="M91 331.051c2.6 3.95 5.8 8.15 8 10.55 4.4 4.8 12.8 11.2 14.4 11.2 1.6 0 4.8 3.2 6.8 2.4 2-.8 4.8-2.4 5.2-5.6.4-3.2-2.4-5.6-2.4-5.6-3.066-1.533-5.806-5.025-7.385-7.348 0 0 .185 2.548-5.015 1.748-5.2-.8-10.4-3.6-12-6.8-1.6-3.2-4-5.6-2.4-2 1.6 3.6 4 7.2 5.6 7.6 1.6.4 1.2 1.6-1.2 1.2-2.4-.4-5.2-.8-9.6-6z" fill="#b26565"/><path d="M88.4 310.001s1.8-13.601 3-17.601c0 0-.8-6.8 1.6-11 2.4-4.2 4.4-10.4 7.4-15.8s3.2-9.4 7.2-11c4-1.6 10-10.2 12.8-11.2 2.8-1 2.6-.2 2.6-.2s6.8-14.8 20.4-10.8c0 0-16.2-2.8-.4-12.2 0 0-4.8 1.1-1.5-5.9 2.201-4.668 1.7 2.1-9.3 13.9 0 0-5 8.6-10.2 11.6-5.2 3-17.2 10-18.4 13.8-1.2 3.8-4.4 9.6-6.4 11.2-2 1.6-4.8 5.8-5.2 9.2 0 0-1.2 4-2.6 5.2-1.4 1.2-1.6 4.4-1.6 6.4s-2 4.8-1.8 7.2c0 0 .8 19.001.4 21.001l2-3.8z" fill="#992600"/><path d="M79.8 314.601s-2-1.4-6.4 4.6c0 0 7.3 33 7.3 34.4 0 0 1.1-2.1-.2-9.3-1.3-7.2-2.2-19.9-2.2-19.9l1.5-9.8z" fill="#fff"/><path d="M101.4 254s-17.6 3.2-17.2 32.4l-.8 24.801s-1.2-25.601-2.4-27.201c-1.2-1.6 2.8-12.8-.4-6.8 0 0-14 14-6 35.201 0 0 1.5 3.3-1.5-1.3 0 0-4.6-12.601-3.5-19.001 0 0 .2-2.2 2.1-5 0 0 8.6-11.7 11.3-14 0 0 1.8-14.4 17.2-19.6 0 0 5.7-2.3 1.2.5z" fill="#992600"/><path d="M240.8 187.8c.66-.354.651-1.324 1.231-1.497 1.149-.344 1.313-1.411 1.831-2.195.873-1.319 1.066-2.852 1.648-4.343.272-.7.299-1.655-.014-2.315-1.174-2.481-1.876-4.93-3.318-7.356-.268-.45-.53-1.244-.731-1.842-.463-1.384-1.72-2.375-2.58-3.695-.288-.441.237-1.366-.479-1.45-.897-.105-2.346-.685-2.579.341-.588 2.587.423 5.11 1.391 7.552-.782.692-.448 1.613-.296 2.38.71 3.606-.488 6.958-1.249 10.432-.023.104.319.302.291.364-1.222 2.686-2.674 5.131-4.493 7.512-.758.992-1.63 1.908-2.127 2.971-.368.787-.776 1.753-.526 2.741-3.435 2.78-5.685 6.625-8.296 10.471-.462.68-.171 1.889.38 2.158.813.398 1.769-.626 2.239-1.472.389-.698.742-1.348 1.233-1.991l.089-.715c2.633-2.347 4.302-5.283 6.755-7.651 1.95-.329 3.487-1.327 5.235-2.34.308-.179.832.07 1.122-.125 1.753-1.177 1.751-3.213 1.857-5.123.05-.884.246-2.201 1.386-2.812zM231.959 183.334l.078-.716.727-.836c.109-.216-.054-.596.082-.738 2.333-2.447 2.59-5.471 1.554-8.444 1.024-.62 1.085-1.882.66-2.729-.853-1.7-1.046-3.626-2.021-5.169-.802-1.269-2.38-2.513-3.751-1.21-.421.4-.742 1.187-.464 1.899l.322.391c-.107.324-.653.548-.659.82-.03 1.496-.984 3.007-.354 4.336.772 1.629 1.591 3.486 2.267 5.262-1.234 2.116-.201 4.565-1.954 6.442-.136.146-.127.532-.005.734.292.486.698.892 1.184 1.184.202.121.55.123.75-.001.578-.362.976-.849 1.584-1.225zM294.771 173.023c1.389 1.792 1.679 4.587-.37 5.977.55 3.309 3.901 1.33 6 .8-.109-.388.118-.732.401-.737 1.057-.015 1.737-1.047 2.799-.863.434-1.557 2.072-2.259 2.716-3.639 1.726-3.695 1.135-7.968-1.449-11.214-.202-.254.015-.771-.109-1.133-.756-2.211-2.824-2.526-4.758-3.214-1.177-3.875-1.838-7.906-3.6-11.6-1.614-.25-2.312-1.989-3.649-2.709-1.333-.719-1.901.86-1.86 1.906.007.205.459.429.289.794-.076.164-.336.275-.336.409.001.135.222.266.356.4-.918.82-2.341 1.297-2.636 2.442-.954 3.71 1.619 6.835 3.287 10.036.591 1.135-.145 2.406-.905 3.614-.438.695-.33 1.822-.054 2.678.752 2.331 2.343 4.07 3.878 6.053zM257.611 191.409c-1.487 1.851-4.899 4.42-1.982 6.348.194.129.564.133.737-.001 2.021-1.565 4.024-2.468 6.46-3.05.124-.029.398.438.767.277 1.613-.703 3.623-.645 4.807-1.983 3.767.224 7.332-.892 10.723-2.2 1.161-.448 2.431-1.007 3.632-1.509 1.376-.576 2.58-1.504 3.692-2.645.133-.136.487-.046.754-.046-.04-.863.922-.99 1.169-1.612.092-.232-.058-.628.075-.73 2.138-1.63 3.058-3.648 1.889-6.025-.285-.578-.534-1.196-1.1-1.672-1.085-.911-2.187-.057-3.234-.361-.159.628-.888.456-1.274.654l-3.051.292c-1.362.695-2.603.864-4.025 1.241-.312.082-1.09-.014-1.25.613-.134-.134-.282-.368-.388-.346-1.908.396-3.168.61-4.469 2.302l-.704.089c-.957.808-1.362 2.042-2.463 2.714l-.747.084c-.646.431-1.013 1.072-1.655 1.519-.329.229-.729-.096-.697-.352.245-1.947.898-3.734.323-5.61 2.077-2.52 4.594-4.469 6.4-7.2.015-2.166.707-4.312.594-6.389-.01-.193-.298-.926-.424-1.273-.312-.854.594-1.92-.25-2.644-1.404-1.203-2.696-.327-3.52 1.106-1.838.39-3.904 1.083-5.482-.151-1.007-.787-1.585-1.693-2.384-2.749-.985-1.302-.65-2.738-.58-4.302l-.309-.398c.001-.135.221-.266.355-.4-.706-.626-.981-1.684-2-2 .305-1.092-.371-1.976-1.242-2.278-1.995-.691-3.672 1.221-5.564 1.294-.514.019-.981-1.019-1.63-1.344-.432-.216-1.136-.249-1.498.017-.688.504-1.277.618-2.035.823-1.617.436-2.895 1.53-4.375 2.385-1.485.857-2.44 2.294-3.52 3.614-.941 1.152-1.077 3.566.343 4.066 1.843.65 3.147-2.053 5.113-1.727.312.051.518.362.408.75.389.109.607-.12.8-.4.858 1.019 2.022 1.356 2.96 2.229.97.904 2.716.486 3.731 1.483 1.529 1.502.97 4.183 2.909 5.488-.586 1.313-1.193 2.59-1.528 4.017-.282 1.206.712 2.403 1.923 2.312 1.258-.094 1.52-.853 2.005-1.929.267.267.736.564.695.78-.457 2.387-1.484 4.38-1.942 6.811-.059.317-.364.519-.753.409-.468 4.149-4.52 6.543-7.065 9.708-.403.502-.407 1.751.002 2.154 1.403 1.387 3.363-.159 5.063-.662.213-1.206 1.072-2.148 2.404-2.092.256.01.491-.532.815-.662.348-.138.85.086 1.136-.112 1.729-1.195 3.137-2.301 4.875-3.49.192-.131.536.028.752-.08.325-.162.512-.549.835-.734.348-.2.59.09.783.37-.646.349-.65 1.306-1.232 1.508-.775.268-1.336.781-2.01 1.228-.292.193-.951-.055-1.055.124-.598 1.028-1.782 1.466-2.492 2.349zM202.2 142s-9.238-2.872-20.4 22.8c0 0-2.4 5.2-4.8 7.2s-13.6 5.6-15.6 9.6l-10.4 16s14.8-16 18-18.4c0 0 8-8.4 4.8-1.6 0 0-14 10.8-12.8 20 0 0-5.6 14.4-6.4 16.4 0 0 16-32 18.4-33.2 2.4-1.2 3.6-1.2 2.4 2.4-1.2 3.6-1.6 20-4.4 22 0 0 8-20.4 7.2-23.6 0 0 3.2-3.6 5.6 1.6l-1.2 16 4.4 12s-2.4-11.2-.8-26.8c0 0-2-10.4 2-4.8 4 5.6 13.6 11.6 13.6 16.4 0 0-5.2-17.6-14.4-22.4l-4 6-1.2-2s-3.6-.8.8-7.6 4-7.6 4-7.6 6.4 7.2 8 7.2c0 0 13.2-7.6 14.4 16.8 0 0 6.8-14.4-2.4-21.2 0 0-14.8-2-13.6-7.2l7.2-12.4c3.6-5.2 2-2.4 2-2.4zM182.2 158.4s-12.8 0-16 5.2l-7.2 9.6s17.2-10 21.2-11.2c4-1.2 2-3.6 2-3.6zM142.2 164.8s-2 1.2-2.4 4c-.4 2.8-2.8 3.2-2 6 .8 2.8 2.8 5.2 2.8 1.2s1.6-6 2.4-7.2c.8-1.2 2.4-5.6-.8-4zM133.4 226s-8.4-4-11.6-7.6c-3.2-3.6-2.748 1.566-7.6 1.2-5.847-.441-4.8-16.4-4.8-16.4l-4 7.6s-1.2 14.4 6.8 12c3.907-1.172 5.2.4 3.6 1.2-1.6.8 5.6 1.2 2.8 2.8-2.8 1.6 11.6-3.6 9.2 6.8l5.6-7.6zM120.8 240.4s-15.4 4.4-19-5.2c0 0-4.8 2.4-2.6 5.4 2.2 3 3.4 3.4 3.4 3.4s5.4 1.2 4.8 2c-.6.8-3 4.2-3 4.2s10.2-6 16.4-9.8z" fill="#000"/><path d="M349.201 318.601c-.427 2.134-2.098 2.935-4 3.6-1.917-.958-4.515-4.064-6.4-2-.474-.48-1.253-.54-1.597-1.202-.465-.898-.193-1.944-.535-2.742-.545-1.272-1.254-2.638-1.068-4.056 1.806-.712 2.401-2.618 1.927-4.381-.069-.257-.498-.454-.298-.803.186-.323.504-.55.771-.817-.135.135-.28.368-.391.348-.61-.106-.486-.743-.356-1.13.585-1.746 2.599-2.01 3.947-.818.256-.565.765-.371 1.2-.4-.05-.579.358-1.106.556-1.526.518-1.098 2.147.008 2.944-.604 1.076-.825 2.139-1.524 3.217-.921 1.809 1.013 3.518 2.225 4.717 3.966.575.834.815 2.115.757 3.073-.038.647-1.419.295-1.762 1.224-.645 1.748 1.186 2.267 1.942 3.605.198.349-.066.653-.381.751-.411.128-1.195-.061-1.057.392.972 3.193-1.784 3.871-4.133 4.441zM339.6 338.201c-.007-1.738-1.608-3.494-.399-5.2.135.134.266.355.4.355.135 0 .266-.221.4-.355 1.495 2.216 5.147 3.144 5.005 5.99-.022.447-1.109 1.365-.205 2.01-1.813 1.348-1.868 3.718-2.8 5.6-1.238-.286-2.45-.649-3.6-1.2.352-1.486.235-3.17 1.055-4.49.434-.698.147-1.777.144-2.71z" fill="#fff"/><path d="M173.4 329.201s-16.858 10.136-2.8-5.2c8.8-9.6 18.8-15.2 18.8-15.2s10.4-4.401 14-5.601c3.6-1.2 18.8-6.4 22-6.8 3.2-.4 12.8-4.4 19.6-.4 6.8 4 14.8 8.4 14.8 8.4s-16.4-8.4-20-6c-3.6 2.4-10.8 2-16.8 5.2 0 0-14.8 4.401-18 6.401-3.2 2-13.6 13.6-15.2 12.8-1.6-.8.4-1.2 1.6-4 1.2-2.8-.8-4.4-8.8 2s-9.2 8.4-9.2 8.4z" fill="#ccc"/><path d="M180.805 323.234s1.41-13.04 9.888-11.375c0 0 8.226-4.17 10.948-6.138 0 0 8.139-1.702 9.449-2.319 18.479-8.7 33.198-4.181 33.745-5.301.546-1.119 20.171 5.998 23.78 10.084.391.443-10.231-5.597-19.929-7.488-8.273-1.614-29.875.247-40.781 5.783-2.973 1.509-11.918 7.293-14.449 7.182-2.531-.112-12.651 9.572-12.651 9.572z" fill="#000"/><path d="M177 348.801s-15.2-2.4 1.6-4c0 0 18-2 22-7.2 0 0 13.6-9.2 16.4-9.6 2.8-.4 32.8-7.6 33.2-10 .4-2.4 6-2.4 7.6-1.6 1.6.8.8 2-2 2.8-2.8.8-34 17.2-40.4 18.4-6.4 1.2-18 8.8-22.8 10-4.8 1.2-15.6 1.2-15.6 1.2z" fill="#ccc"/><path d="M196.52 341.403s-8.582-.829.019-1.648c0 0 8.816-3.424 10.864-6.087 0 0 6.964-4.711 8.397-4.915 1.434-.205 15.394-3.892 15.599-5.12.205-1.229 34.271-13.81 38.691-10.62 2.911 2.101-6.99.424-16.624 4.834-1.355.62-35.208 15.207-38.485 15.821-3.277.615-9.216 4.506-11.674 5.12-2.457.615-6.787 2.615-6.787 2.615zM188.6 343.601s5.2-.4 4 1.2c-1.2 1.6-3.6.8-3.6.8l-.4-2zM181.4 345.201s5.2-.4 4 1.2c-1.2 1.6-3.6.8-3.6.8l-.4-2zM171 346.801s5.2-.4 4 1.2c-1.2 1.6-3.6.8-3.6.8l-.4-2zM163.4 347.601s5.2-.4 4 1.2c-1.2 1.6-3.6.8-3.6.8l-.4-2zM201.8 308.001s4.4 0 3.2 1.6c-1.2 1.6-4.4 1.2-4.4 1.2l1.2-2.8zM191.8 313.601s6.506-2.141 4 1.2c-1.2 1.6-3.6.8-3.6.8l-.4-2zM180.6 318.401s5.2-.4 4 1.2c-1.2 1.6-3.6.8-3.6.8l-.4-2zM173 324.401s5.2-.4 4 1.2c-1.2 1.6-3.6.8-3.6.8l-.4-2zM166.2 329.201s5.2-.4 4 1.2c-1.2 1.6-3.6.8-3.6.8l-.4-2zM205.282 335.598s6.921-.532 5.324 1.597c-1.597 2.13-4.792 1.065-4.792 1.065l-.532-2.662zM215.682 330.798s6.921-.532 5.324 1.597c-1.597 2.13-4.792 1.065-4.792 1.065l-.532-2.662zM226.482 326.398s6.921-.532 5.324 1.597c-1.597 2.13-4.792 1.065-4.792 1.065l-.532-2.662zM236.882 321.598s6.921-.532 5.324 1.597c-1.597 2.13-4.792 1.065-4.792 1.065l-.532-2.662zM209.282 303.598s6.921-.532 5.324 1.597c-1.597 2.13-5.592 1.865-5.592 1.865l.268-3.462zM219.282 300.398s6.921-.532 5.324 1.597c-1.597 2.13-5.992 1.865-5.992 1.865l.668-3.462zM196.6 340.401s5.2-.4 4 1.2c-1.2 1.6-3.6.8-3.6.8l-.4-2z" fill="#000"/><path d="M123.4 241.2s-4.4 8.8-4.8 12c0 0 .8-8.8 2-10.8s2.8-1.2 2.8-1.2zM105 255.2s-3.2 14.4-2.8 17.2c0 0-1.2-11.6-.8-12.8.4-1.2 3.6-4.4 3.6-4.4z" fill="#992600"/><path d="M125.8 180.6l-.2 3.2-2.2.2s14.2 12.6 14.8 20.2c0 0 .8-8.2-12.4-23.6z" fill="#ccc"/><path d="M129.784 181.865c-.431-.416-.212-1.161-.62-1.421-.809-.516 1.298-.573 1.07-1.289-.383-1.206-.196-1.227-.318-2.503-.057-.598.531-2.138.916-2.578 1.446-1.652.122-4.584 1.762-6.135.304-.289.68-.841.965-1.259.659-.963 1.843-1.451 2.793-2.279.318-.276.117-1.103.686-1.011.714.115 1.955-.015 1.91.826-.113 2.12-1.442 3.84-2.722 5.508.451.704-.007 1.339-.291 1.896-1.335 2.62-1.146 5.461-1.32 8.301-.005.085-.312.163-.304.216.353 2.335.937 4.534 1.816 6.763.366.93.837 1.825.987 2.752.111.686.214 1.519-.194 2.224 2.035 2.89.726 5.541 1.895 9.072.207.625 1.899 2.539 1.436 2.378-2.513-.871-2.625-1.269-2.802-2.022-.146-.623-.476-2-.713-2.602-.064-.164-.235-2.048-.313-2.17-1.513-2.382-.155-2.206-1.525-4.564-1.428-.68-2.394-1.784-3.517-2.946-.198-.204.945-.928.764-1.141-1.092-1.289-2.245-2.056-1.909-3.549.155-.69.292-1.747-.452-2.467zM126.2 183.6s.4 6.8 2.8 8.4c2.4 1.6 1.2.8-2-.4-3.2-1.2-2-2-2-2s-2.8.4-.4 2.4 6 4.4 4.4 4.4c-1.6 0-9.2-4-9.2-6.8s-1-6.9-1-6.9 1.1-.8 5.9-.7c0 0 1.4.7 1.5 1.6z" fill="#000"/><path d="M125.4 202.2s-8.52-2.791-27 .6c0 0 9.031-2.078 27.8.2 10.3 1.25-.8-.8-.8-.8zM127.498 202.129s-8.246-3.518-26.951-1.737c0 0 9.178-1.289 27.679 2.603 10.154 2.136-.728-.866-.728-.866zM129.286 202.222s-7.962-4.121-26.747-3.736c0 0 9.248-.604 27.409 4.654 9.966 2.885-.662-.918-.662-.918zM130.556 202.445s-6.824-4.307-23.698-5.405c0 0 8.339.17 24.22 6.279 8.716 3.353-.522-.874-.522-.874zM245.84 212.961s-.93.644-.716-.537c.215-1.181 28.423-14.351 32.037-14.101 0 0-30.248 13.206-31.321 14.638zM242.446 213.6s-.876.715-.755-.479 27.208-16.539 30.83-16.573c0 0-29.117 15.541-30.075 17.052zM239.16 214.975s-.828.772-.786-.428c.042-1.199 19.859-16.696 29.671-18.57 0 0-18.03 8.127-28.885 18.998zM236.284 216.838s-.745.694-.707-.385c.038-1.08 17.872-15.027 26.703-16.713 0 0-16.226 7.314-25.996 17.098z" fill="#fff" stroke="#000" stroke-width=".1"/><path d="M204.6 364.801s-15.2-2.4 1.6-4c0 0 18-2 22-7.2 0 0 13.6-9.2 16.4-9.6 2.8-.4 19.2-4 19.6-6.4.4-2.4 6.4-4.8 8-4 1.6.8 1.6 10-1.2 10.8-2.8.8-21.6 8-28 9.2-6.4 1.2-18 8.8-22.8 10-4.8 1.2-15.6 1.2-15.6 1.2z" fill="#ccc"/><path d="M277.6 327.401s-3 1.6-4.2 4.2c0 0-6.4 10.6-20.6 13.8 0 0-23 9-30.8 11 0 0-13.4 5-20.8 4.2 0 0-7 .2-.8 1.8 0 0 20.2-2 23.6-3.8 0 0 15.6-5.2 18.6-7.8 3-2.6 21.2-7.6 23.4-9.6 2.2-2 12-10.4 11.6-13.8zM218.882 358.911s5.229-.226 4.076 1.323c-1.153 1.55-3.601.676-3.601.676l-.475-1.999zM211.68 360.263s5.228-.226 4.076 1.323c-1.153 1.55-3.601.677-3.601.677l-.475-2zM201.251 361.511s5.229-.227 4.076 1.323c-1.153 1.549-3.601.676-3.601.676l-.475-1.999zM193.617 362.055s5.229-.226 4.076 1.323c-1.153 1.55-3.601.676-3.601.676l-.475-1.999zM235.415 351.513s6.96-.301 5.425 1.761c-1.534 2.062-4.793.9-4.793.9l-.632-2.661zM245.73 347.088s5.959-3.301 5.425 1.761c-.27 2.556-4.793.9-4.793.9l-.632-2.661zM254.862 344.274s7.159-3.701 5.425 1.761c-.778 2.45-4.794.9-4.794.9l-.631-2.661zM264.376 339.449s4.359-4.901 5.425 1.761c.406 2.538-4.793.9-4.793.9l-.632-2.661zM226.834 355.997s5.228-.227 4.076 1.323c-1.153 1.549-3.602.676-3.602.676l-.474-1.999z" fill="#000"/><path d="M262.434 234.603s-.726.665-.727-.406c0-1.07 17.484-14.334 26.327-15.718 0 0-16.099 6.729-25.6 16.124z" fill="#fff" stroke="#000" stroke-width=".1"/><path d="M265.4 298.4s22.001 22.401 31.201 26.001c0 0 9.2 11.2 5.2 37.2 0 0-3.2 7.6-6.4-13.2 0 0 3.2-25.2-8-9.2 0 0-8.401-9.9-2.001-9.6 0 0 3.201 2 3.601.4.4-1.6-7.601-15.2-24.801-29.601-17.2-14.4 1.2-2 1.2-2z" fill="#000"/><path d="M207 337.201s-.2-1.8 1.6-1 96.001 7 127.601 31c0 0-45.2-23.2-129.201-30zM217.4 332.801s-.2-1.8 1.6-1 138.401-.2 162.001 32.2c0 0-22-25.2-163.601-31.2zM229 328.801s-.2-1.8 1.6-1 175.201-12.2 198.801 20.2c0 0-9.6-25.6-200.401-19.2zM239 324.001s-.2-1.8 1.6-1 124.001-37.801 147.601-5.4c0 0-13.4-24.601-149.201 6.4zM181 346.801s-.2-1.8 1.6-1 19.6 3 21.6 41.8c0 0-7.2-42-23.2-40.8zM172.2 348.401s-.2-1.8 1.6-1 16-3.8 13.2 35c0 0 1.2-35.2-14.8-34zM164.2 348.801s-.2-1.8 1.6-1 17.2 1.4 4.8 23.8c0 0 9.6-24-6.4-22.8zM211.526 304.465s-.444 1.999 1.105.782c16.068-12.625 48.51-71.527 104.195-77.161 0 0-38.308-12.11-105.3 76.379zM222.726 302.665s-1.363-1.193.505-1.818c1.868-.625 114.31-73.127 153.595-65.161 0 0-27.107-7.51-154.1 66.979zM201.885 308.767s-.509 1.599 1.202.623c8.975-5.12 12.59-62.331 56.167-63.586 0 0-32.411-14.714-57.369 62.963zM181.962 319.793s-1.077 1.286.876 1.032c10.246-1.332 31.651-42.603 76.09-37.524 0 0-31.966-14.346-76.966 36.492zM193.2 313.667s-.811 1.469 1.058.844c9.799-3.274 22.883-47.886 67.471-51.433 0 0-34.126-7.943-68.529 50.589zM174.922 324.912s-.873 1.042.709.836c8.299-1.079 25.637-34.508 61.633-30.394 0 0-25.893-11.62-62.342 29.558zM167.323 330.821s-1.005 1.045.586.927c4.168-.309 34.806-33.388 53.274-17.886 0 0-12.015-18.723-53.86 16.959zM236.855 298.898s-1.201-1.355.731-1.74c1.932-.384 122.635-58.097 160.598-45.231 0 0-25.941-10.874-161.329 46.971zM203.4 363.201s-.2-1.8 1.6-1 17.2 1.4 4.8 23.8c0 0 9.6-24-6.4-22.8zM213.8 361.601s-.2-1.8 1.6-1 19.6 3 21.6 41.8c0 0-7.2-42-23.2-40.8zM220.6 360.001s-.2-1.8 1.6-1 26.4 4.2 50 36.6c0 0-35.6-36.8-51.6-35.6zM228.225 357.972s-.437-1.758 1.453-1.204c1.89.554 22.324-1.345 60.421 32.831 0 0-46.175-34.943-61.874-31.627zM238.625 353.572s-.437-1.758 1.453-1.204c1.89.554 36.724 5.055 88.421 40.031 0 0-74.175-42.143-89.874-38.827zM198.2 342.001s-.2-1.8 1.6-1 55.2 3.4 85.6 30.2c0 0-34.901-24.775-87.2-29.2zM188.2 346.001s-.2-1.8 1.6-1 26.4 4.2 50 36.6c0 0-35.6-36.8-51.6-35.6zM249.503 348.962s-.565-1.721 1.361-1.307c1.926.413 36.996 2.349 91.117 33.443 0 0-77.664-34.394-92.478-32.136zM257.903 346.562s-.565-1.721 1.361-1.307c1.926.413 36.996 2.349 91.117 33.443 0 0-77.064-34.794-92.478-32.136zM267.503 341.562s-.565-1.721 1.361-1.307c1.926.413 44.996 4.749 134.718 39.043 0 0-120.665-40.394-136.079-37.736z" fill="#fff" stroke="#000" stroke-width=".1"/><path d="M156.2 348.401s5.2-.4 4 1.2c-1.2 1.6-3.6.8-3.6.8l-.4-2zM187 362.401s5.2-.4 4 1.2c-1.2 1.6-3.6.8-3.6.8l-.4-2zM178.2 362.001s5.2-.4 4 1.2c-1.2 1.6-3.6.8-3.6.8l-.4-2zM82.831 350.182s5.045 1.323 3.387 2.442c-1.657 1.12-3.664-.422-3.664-.422l.277-2.02zM84.831 340.582s5.045 1.323 3.387 2.442c-1.657 1.12-3.664-.422-3.664-.422l.277-2.02zM77.631 336.182s5.045 1.323 3.387 2.442c-1.657 1.12-3.664-.422-3.664-.422l.277-2.02z" fill="#000"/><path d="M157.4 411.201s-1.6 0-5.6 2c-2 0-13.2 3.6-18.8 13.6 0 0 12.4-9.6 24.4-15.6zM245.116 503.847c.141.258.196.678.488.695.658.04 1.891.341 1.766-.295-.848-4.306-1.722-9.243-5.855-11.05-.639-.279-2.081.134-2.155 1.018-.127 1.524-.244 2.873.065 4.339.3 1.421 2.458 1.431 3.375.047.936 1.672 1.368 3.515 2.316 5.246zM234.038 508.581c.748 1.413.621 3.272 2.036 3.835.74.294 2.59-.681 2.172-1.755-.802-2.061-1.19-4.3-2.579-6.111-.2-.262.04-.795-.12-1.123-.594-1.22-1.739-1.955-3.147-1.626-1.115 2.203.033 4.332 1.555 6.041.136.152-.03.528.083.739zM194.436 503.391c-.108-.377-.146-.84.019-1.161.531-1.033 1.324-2.155.987-3.177-.348-1.056-1.464-.874-2.114-.305-1.135.994-1.184 2.82-1.875 4.179-.196.386-.145.959-.586 1.35-.474.421-.914 1.945-.818 2.516.053.313-.13 10.221.092 9.958.619-.733 3.669-10.467 3.738-11.359.057-.731.789-1.196.557-2.001zM168.798 496.599c2.634-2.499 5.424-5.46 4.982-9.172-.116-.976-1.891-.449-2.078.397-.802 3.625-2.841 6.286-5.409 8.678-2.196 2.047-4.058 8.391-4.293 8.899 3.697-5.256 5.954-8.002 6.798-8.802zM155.224 490.635c.523-.37.221-.861.438-1.193.953-1.458 2.254-2.704 2.272-4.442.003-.277-.375-.586-.71-.362-.277.184-.619.314-.727.444-2.03 2.449-3.43 5.12-4.873 7.932-.183.357-1.327 4.848-1.014 4.959.239.085 1.959-4.096 2.169-4.21 1.263-.686 1.275-2.301 2.445-3.128zM171.957 510.179c.444-.869 2.02-2.071 1.907-2.96-.118-.928.35-2.371-.562-1.683-1.257.948-4.706 2.297-4.976 8.105-.026.571 2.948-2.122 3.631-3.462zM186.4 493.001c.4-.668 1.108-.195 1.567-.458.648-.372 1.259-.93 1.551-1.579.97-2.149 2.739-3.969 2.882-6.363-1.491-1.405-2.17.635-2.8 1.6-1.323-1.647-2.322.227-3.622.746l-.358-.292c-1.177.44-1.857 1.521-2.855 2.302l-.723.09c-.652.603-1.625.928-1.905 1.61-1.11 2.707-4.25 4.802-6.137 12.344.381.909 4.512-6.642 4.999-7.34.836-1.196.954 1.661 2.23.995.051-.027.237.211.371.345.194-.28.412-.509.8-.4 0-.4-.134-.956.067-1.115 1.237-.977 1.153-2.045 1.933-3.285.458.789 1.519.07 2 .8zM246.2 547.401s7.4-20.4 3-31.6c0 0 11.4 21.6 6.8 32.8 0 0-.4-10.4-4.4-15.4 0 0-4 12.8-5.4 14.2zM231.4 544.801s5.4-8.8-2.6-27.2c0 0-.8 20.4-7.6 31.4 0 0 14.2-20.2 10.2-4.2zM221.4 542.801s-.2-20 .2-23c0 0-3.8 16.6-14 26.2 0 0 14.4-12 13.8-3.2zM211.8 510.801s6 13.6-4 32c0 0 6.4-12.2 1.6-19.2 0 0 2.6-3.4 2.4-12.8zM192.6 542.401s-1-15.6.8-17.8c0 0 .2-6.4-.2-7.4 0 0 4-6.2 4.2 1.2 0 0 1.4 7.8 4.2 12.4 0 0 3.6 5.4 3.4 11.8 0 0-10-30.2-12.4-.2zM189 514.801s-6.6 10.8-8.4 29.8c0 0-1.4-6.2 2.4-20.6 0 0 4.2-15.4 6-9.2zM167.2 534.601s5-5.4 6.4-10.4c0 0 3.6-15.8-2.8-7.2 0 0 .2 8-8 15.4 0 0 4.8-2.4 4.4 2.2zM161.4 529.601s3.4-17.4 4.2-18.2c0 0 1.8-3.4-1-.2 0 0-8.8 19.2-12.8 25.8 0 0 8-9.2 9.6-7.4zM155.6 513.001s11.6-22.4-10.2 3.4c0 0 11-9.8 10.2-3.4zM140.2 498.401s4.8-18.8 7.4-18.6c0 0 8.2-9 1.6 1.6 0 0-6 9.6-5.4 19.4 0 0-.6-9.6-3.6-2.4zM470.5 487s-12-10-14.5-13.5c0 0 13.5 18.5 13.5 25.5 0 0 2.5-7.5 1-12zM476 465s-21-15-24.5-22.5c0 0 26.5 29.5 26.5 34 0 0 .5-9-2-11.5zM493 311s-12-8-13.5-6c0 0 10.5 6.5 13 15 0 0-1.5-9 .5-9zM501.5 391.5l-17.5-12s19 17 19.5 21l-2-9z" fill="#ccc"/><path d="M110.75 369l22 4.75M161 531s-.5-3.5-9.5 7M166.5 536s2-6.5-4.5-2M220.5 544.5s1.5-11-10 2" stroke="#000"/></g></svg>